<?xml version="1.0" encoding="UTF-8" standalone="no"?>
<!-- Created with Inkscape (http://www.inkscape.org/) -->

<svg
   xmlns:dc="http://purl.org/dc/elements/1.1/"
   xmlns:cc="http://creativecommons.org/ns#"
   xmlns:rdf="http://www.w3.org/1999/02/22-rdf-syntax-ns#"
   xmlns:svg="http://www.w3.org/2000/svg"
   xmlns="http://www.w3.org/2000/svg"
   xmlns:sodipodi="http://sodipodi.sourceforge.net/DTD/sodipodi-0.dtd"
   xmlns:inkscape="http://www.inkscape.org/namespaces/inkscape"
   width="1052.3622"
   height="744.09448"
   id="svg2"
   version="1.1"
   inkscape:version="0.48.4 r9939"
   sodipodi:docname="plugin.svg">
  <defs
     id="defs4" />
  <sodipodi:namedview
     id="base"
     pagecolor="#ffffff"
     bordercolor="#666666"
     borderopacity="1.0"
     inkscape:pageopacity="0.0"
     inkscape:pageshadow="2"
     inkscape:zoom="0.5"
     inkscape:cx="578.85307"
     inkscape:cy="330.77271"
     inkscape:document-units="px"
     inkscape:current-layer="layer1"
     showgrid="true"
     showguides="true"
     inkscape:guide-bbox="true"
     inkscape:window-width="1366"
     inkscape:window-height="712"
     inkscape:window-x="0"
     inkscape:window-y="27"
     inkscape:window-maximized="1">
    <inkscape:grid
       type="xygrid"
       id="grid2985"
       empspacing="5"
       visible="true"
       enabled="true"
       snapvisiblegridlinesonly="true" />
    <sodipodi:guide
       orientation="0,1"
       position="560,80"
       id="guide3029" />
  </sodipodi:namedview>
  <metadata
     id="metadata7">
    <rdf:RDF>
      <cc:Work
         rdf:about="">
        <dc:format>image/svg+xml</dc:format>
        <dc:type
           rdf:resource="http://purl.org/dc/dcmitype/StillImage" />
        <dc:title />
      </cc:Work>
    </rdf:RDF>
  </metadata>
  <g
     inkscape:label="Layer 1"
     inkscape:groupmode="layer"
     id="layer1"
     transform="translate(0,-308.2677)">
    <path
       style="opacity:0.20408164;fill:#000000;stroke:#000000;stroke-width:4;stroke-miterlimit:4;stroke-dashoffset:0"
       d="m 37.142857,362.36218 982.857143,0 0,650.00002 -982.857143,0 z"
       id="rect2989" />
    <g
       style="font-size:20px;font-style:normal;font-variant:normal;font-weight:300;font-stretch:normal;line-height:125%;letter-spacing:0px;word-spacing:0px;fill:#000000;fill-opacity:1;stroke:none;font-family:EB Garamond;-inkscape-font-specification:EB Garamond"
       id="text2991">
      <path
         d="m 93.328,388.96218 3.276,-0.108 c 0.695973,3e-5 1.043972,0.13203 1.044,0.396 -2.8e-5,0.33603 -0.408027,0.57603 -1.224,0.72 -0.792026,0.14402 -1.308025,0.40802 -1.548,0.792 -0.216025,0.36002 -0.324025,0.93602 -0.324,1.728 l 0,16.272 c -2.5e-5,0.93601 0.107975,1.596 0.324,1.98 0.239975,0.36 0.767974,0.612 1.584,0.756 0.839973,0.144 1.259972,0.36 1.26,0.648 -2.8e-5,0.264 -0.348027,0.396 -1.044,0.396 l -3.744,-0.18 -3.852,0.18 c -0.696018,0 -1.044018,-0.132 -1.044,-0.396 -1.8e-5,-0.288 0.395982,-0.504 1.188,-0.648 1.631979,-0.312 2.447978,-1.188 2.448,-2.628 l 0,-6.84 c -2.2e-5,-0.35999 -0.06002,-0.53999 -0.18,-0.54 l -13.752,0 c -0.120008,10e-6 -0.180008,0.13201 -0.18,0.396 l 0,6.66 c -8e-6,0.74401 0.263992,1.39201 0.792,1.944 0.527991,0.528 1.19999,0.864 2.016,1.008 0.815989,0.144 1.223988,0.36 1.224,0.648 -1.2e-5,0.264 -0.348011,0.396 -1.044,0.396 l -4.212,-0.18 -3.96,0.18 c -0.696002,0 -1.044001,-0.132 -1.044,-0.396 -10e-7,-0.288 0.407998,-0.504 1.224,-0.648 0.839997,-0.168 1.403996,-0.432 1.692,-0.792 0.287995,-0.384 0.431995,-1.01999 0.432,-1.908 l 0,-16.272 c -5e-6,-0.88798 -0.108005,-1.49998 -0.324,-1.836 -0.216004,-0.33598 -0.732004,-0.57598 -1.548,-0.72 -0.816002,-0.14397 -1.224002,-0.38397 -1.224,-0.72 -2e-6,-0.26397 0.347998,-0.39597 1.044,-0.396 l 3.708,0.108 3.816,-0.108 c 0.695989,3e-5 1.043989,0.13203 1.044,0.396 -1.1e-5,0.33603 -0.396011,0.57603 -1.188,0.72 -1.632008,0.28802 -2.448008,1.14002 -2.448,2.556 l 0,6.912 c -8e-6,0.21602 0.167992,0.32402 0.504,0.324 l 13.356,0 c 0.167978,2e-5 0.251978,-0.14398 0.252,-0.432 l 0,-6.84 c -2.2e-5,-1.39198 -0.792021,-2.23198 -2.376,-2.52 -0.792019,-0.14397 -1.188018,-0.38397 -1.188,-0.72 -1.8e-5,-0.26397 0.347982,-0.39597 1.044,-0.396 l 4.176,0.108"
         style="font-size:36px"
         id="path4597" />
      <path
         d="m 107.71169,398.57418 c -2.88001,2e-5 -4.32001,2.07601 -4.32,6.228 -1e-5,1.84801 0.47999,3.48001 1.44,4.896 0.95999,1.392 2.13599,2.088 3.528,2.088 1.79999,0 3.03599,-0.66 3.708,-1.98 0.47998,-0.93599 0.71998,-2.32799 0.72,-4.176 -2e-5,-1.84799 -0.48002,-3.47999 -1.44,-4.896 -0.96001,-1.43998 -2.17201,-2.15998 -3.636,-2.16 m -7.272,7.092 c 0,-2.08799 0.768,-3.97199 2.304,-5.652 1.55999,-1.70398 3.39599,-2.55598 5.508,-2.556 2.11199,2e-5 3.88798,0.72002 5.328,2.16 1.43998,1.41601 2.15998,3.18001 2.16,5.292 -2e-5,2.11201 -0.72002,3.97201 -2.16,5.58 -1.41602,1.584 -3.40801,2.376 -5.976,2.376 -2.04001,0 -3.74401,-0.684 -5.112,-2.052 -1.368,-1.36799 -2.052,-3.08399 -2.052,-5.148"
         style="font-size:36px"
         id="path4599" />
      <path
         d="m 125.57275,400.48218 c -0.024,-0.52798 -0.26401,-1.00798 -0.72,-1.44 -0.45601,-0.43198 -1.00801,-0.64798 -1.656,-0.648 -0.62401,2e-5 -1.14001,0.21602 -1.548,0.648 -0.408,0.43202 -0.612,0.93602 -0.612,1.512 0,0.57601 0.204,1.10401 0.612,1.584 0.40799,0.48001 0.75599,0.82801 1.044,1.044 0.31199,0.19201 0.76799,0.48001 1.368,0.864 0.62399,0.38401 1.11599,0.70801 1.476,0.972 0.35999,0.26401 0.77999,0.74401 1.26,1.44 0.47999,0.67201 0.71999,1.36801 0.72,2.088 -1e-5,2.88 -1.72801,4.32 -5.184,4.32 -0.888,0 -1.716,-0.156 -2.484,-0.468 -0.768,-0.288 -1.212,-0.564 -1.332,-0.828 -0.264,-0.552 -0.42,-1.284 -0.468,-2.196 0,-0.21599 0.18,-0.32399 0.54,-0.324 0.384,10e-6 0.588,0.084 0.612,0.252 0.12,0.62401 0.528,1.212 1.224,1.764 0.696,0.552 1.428,0.828 2.196,0.828 0.79199,0 1.39199,-0.228 1.8,-0.684 0.43199,-0.456 0.64799,-1.02 0.648,-1.692 -10e-6,-0.67199 -0.21601,-1.23599 -0.648,-1.692 -0.43201,-0.47999 -1.16401,-1.07999 -2.196,-1.8 -1.008,-0.71999 -1.824,-1.41599 -2.448,-2.088 -0.6,-0.69599 -0.9,-1.53599 -0.9,-2.52 0,-0.98399 0.396,-1.88398 1.188,-2.7 0.792,-0.83998 1.90799,-1.25998 3.348,-1.26 1.43999,2e-5 2.43599,0.27602 2.988,0.828 0.40799,0.50402 0.61199,1.44002 0.612,2.808 -1e-5,0.096 -0.084,0.14401 -0.252,0.144 -0.16801,10e-6 -0.40801,-0.084 -0.72,-0.252 -0.31201,-0.19199 -0.46801,-0.35999 -0.468,-0.504"
         style="font-size:36px"
         id="path4601" />
      <path
         d="m 135.37431,412.86618 c -1.176,0 -2.1,-0.348 -2.772,-1.044 -0.648,-0.72 -0.972,-1.8 -0.972,-3.24 l 0,-8.352 c 0,-0.21599 -0.096,-0.35998 -0.288,-0.432 -0.168,-0.072 -0.528,-0.10798 -1.08,-0.108 -0.072,2e-5 -0.168,-0.084 -0.288,-0.252 -0.096,-0.19198 -0.144,-0.33598 -0.144,-0.432 0,-0.11998 0.06,-0.21598 0.18,-0.288 0.552,-0.16798 1.116,-0.51598 1.692,-1.044 0.576,-0.52798 1.044,-1.01998 1.404,-1.476 0.36,-0.45598 0.576,-0.68398 0.648,-0.684 0.336,2e-5 0.504,0.12002 0.504,0.36 l -0.072,1.584 c 0,0.33602 0.288,0.50402 0.864,0.504 l 4.104,0 c 0.23999,2e-5 0.35999,0.28802 0.36,0.864 -1e-5,0.57602 -0.12001,0.86402 -0.36,0.864 l -3.564,0 c -0.648,2e-5 -1.056,0.048 -1.224,0.144 -0.144,0.096 -0.216,0.38401 -0.216,0.864 l 0,6.804 c 0,1.22401 0.228,2.10001 0.684,2.628 0.456,0.504 1.02,0.756 1.692,0.756 1.19999,0 2.09999,-0.228 2.7,-0.684 0.096,-0.072 0.17999,-0.048 0.252,0.072 0.072,0.096 0.10799,0.228 0.108,0.396 -1e-5,0.144 -0.19201,0.396 -0.576,0.756 -0.38401,0.336 -0.92401,0.66 -1.62,0.972 -0.67201,0.312 -1.344,0.468 -2.016,0.468"
         style="font-size:36px"
         id="path4603" />
      <path
         d="m 151.2025,409.23018 c 0,0.62401 0.192,1.116 0.576,1.476 0.38399,0.336 0.85199,0.504 1.404,0.504 0.55199,0 1.19999,-0.324 1.944,-0.972 0.26399,-0.216 0.40799,-0.69599 0.432,-1.44 l 0.072,-1.764 c 0.024,-0.50399 -0.084,-0.75599 -0.324,-0.756 -0.16801,10e-6 -0.33601,0.036 -0.504,0.108 -2.40001,0.81601 -3.6,1.76401 -3.6,2.844 m 0.036,-8.172 0.036,0.504 c 0,0.21601 -0.348,0.48001 -1.044,0.792 -0.672,0.31201 -1.128,0.46801 -1.368,0.468 -0.24,10e-6 -0.36,-0.10799 -0.36,-0.324 0,-0.81599 0.408,-1.58399 1.224,-2.304 0.84,-0.74398 1.764,-1.37998 2.772,-1.908 1.00799,-0.55198 1.93199,-0.82798 2.772,-0.828 0.86399,2e-5 1.58399,0.31202 2.16,0.936 0.57599,0.62402 0.85199,1.38002 0.828,2.268 l -0.18,7.776 0,0.216 c -1e-5,1.704 0.43199,2.556 1.296,2.556 0.59999,0 1.07999,-0.168 1.44,-0.504 0.096,-0.096 0.21599,-0.096 0.36,0 0.14399,0.072 0.21599,0.18 0.216,0.324 l 0,0.036 c -0.14401,0.312 -0.51601,0.696 -1.116,1.152 -0.60001,0.432 -1.20001,0.648 -1.8,0.648 -0.57601,0 -1.06801,-0.156 -1.476,-0.468 -0.38401,-0.312 -0.66001,-0.624 -0.828,-0.936 -0.16801,-0.312 -0.27601,-0.468 -0.324,-0.468 -0.096,0 -0.31201,0.156 -0.648,0.468 -0.33601,0.312 -0.84001,0.624 -1.512,0.936 -0.64801,0.312 -1.38001,0.468 -2.196,0.468 -0.792,0 -1.524,-0.3 -2.196,-0.9 -0.648,-0.6 -0.972,-1.248 -0.972,-1.944 0,-1.43999 0.876,-2.51999 2.628,-3.24 l 3.672,-1.512 c 0.45599,-0.19199 0.73199,-0.35999 0.828,-0.504 0.096,-0.14399 0.15599,-0.45599 0.18,-0.936 l 0.072,-2.232 0,-0.072 c -10e-6,-0.62399 -0.20401,-1.16399 -0.612,-1.62 -0.38401,-0.45598 -0.84001,-0.68398 -1.368,-0.684 -0.50401,2e-5 -0.98401,0.13202 -1.44,0.396 -0.456,0.24002 -0.744,0.46801 -0.864,0.684 -0.12,0.21601 -0.18,0.46801 -0.18,0.756"
         style="font-size:36px"
         id="path4605" />
      <path
         d="m 165.72625,422.44218 -2.88,0.18 c -0.504,-1e-5 -0.756,-0.12001 -0.756,-0.36 0,-0.21601 0.336,-0.43201 1.008,-0.648 0.672,-0.21601 1.068,-0.44401 1.188,-0.684 0.12,-0.21601 0.18,-0.43201 0.18,-0.648 l 0,-18.252 c 0,-0.40799 -0.144,-0.91199 -0.432,-1.512 -0.288,-0.62398 -0.696,-0.99598 -1.224,-1.116 -0.192,-0.048 -0.288,-0.19198 -0.288,-0.432 0,-0.26398 0.084,-0.41998 0.252,-0.468 1.008,-0.23998 2.4,-0.71998 4.176,-1.44 l 0.036,-0.036 0.036,0 c 0.14399,2e-5 0.21599,0.10802 0.216,0.324 l -0.18,2.16 c -10e-6,0.19202 0.012,0.30002 0.036,0.324 0.45599,-0.45598 1.28399,-0.95998 2.484,-1.512 1.22399,-0.57598 2.33999,-0.86398 3.348,-0.864 1.77599,2e-5 3.20399,0.68402 4.284,2.052 1.07998,1.36801 1.61998,2.95201 1.62,4.752 -2e-5,2.20801 -0.80402,4.20001 -2.412,5.976 -1.58401,1.752 -3.48001,2.628 -5.688,2.628 -0.52801,0 -1.17601,-0.12 -1.944,-0.36 -0.76801,-0.216 -1.32001,-0.48 -1.656,-0.792 -0.096,0 -0.14401,0.612 -0.144,1.836 l 0,6.732 c -1e-5,0.35999 0.13199,0.61199 0.396,0.756 0.28799,0.16799 0.49199,0.27599 0.612,0.324 0.14399,0.048 0.34799,0.096 0.612,0.144 0.86399,0.21599 1.29599,0.47999 1.296,0.792 -1e-5,0.21599 -0.26401,0.32399 -0.792,0.324 l -3.384,-0.18 m 1.296,-19.764 -0.036,2.304 c -1e-5,1.15201 0.024,2.30401 0.072,3.456 0.072,1.12801 0.39599,1.968 0.972,2.52 0.57599,0.528 1.65599,0.792 3.24,0.792 0.91199,0 1.87199,-0.444 2.88,-1.332 0.50399,-0.45599 0.92399,-1.11599 1.26,-1.98 0.35999,-0.88799 0.53999,-1.93199 0.54,-3.132 -1e-5,-1.22399 -0.18001,-2.29199 -0.54,-3.204 -0.33601,-0.91199 -0.78001,-1.57199 -1.332,-1.98 -1.03201,-0.69598 -2.08801,-1.04398 -3.168,-1.044 -1.05601,2e-5 -2.04001,0.34802 -2.952,1.044 -0.55201,0.40801 -0.86401,1.26001 -0.936,2.556"
         style="font-size:36px"
         id="path4607" />
      <path
         d="m 184.42937,422.44218 -2.88,0.18 c -0.504,-1e-5 -0.756,-0.12001 -0.756,-0.36 0,-0.21601 0.336,-0.43201 1.008,-0.648 0.672,-0.21601 1.068,-0.44401 1.188,-0.684 0.12,-0.21601 0.18,-0.43201 0.18,-0.648 l 0,-18.252 c 0,-0.40799 -0.144,-0.91199 -0.432,-1.512 -0.288,-0.62398 -0.696,-0.99598 -1.224,-1.116 -0.192,-0.048 -0.288,-0.19198 -0.28799,-0.432 -1e-5,-0.26398 0.084,-0.41998 0.25199,-0.468 1.008,-0.23998 2.4,-0.71998 4.176,-1.44 l 0.036,-0.036 0.036,0 c 0.144,2e-5 0.216,0.10802 0.216,0.324 l -0.18,2.16 c 0,0.19202 0.012,0.30002 0.036,0.324 0.456,-0.45598 1.284,-0.95998 2.484,-1.512 1.224,-0.57598 2.33999,-0.86398 3.348,-0.864 1.77599,2e-5 3.20399,0.68402 4.284,2.052 1.07999,1.36801 1.61999,2.95201 1.62,4.752 -1e-5,2.20801 -0.80401,4.20001 -2.412,5.976 -1.58401,1.752 -3.48001,2.628 -5.688,2.628 -0.528,0 -1.176,-0.12 -1.944,-0.36 -0.768,-0.216 -1.32,-0.48 -1.656,-0.792 -0.096,0 -0.144,0.612 -0.144,1.836 l 0,6.732 c 0,0.35999 0.132,0.61199 0.396,0.756 0.288,0.16799 0.492,0.27599 0.612,0.324 0.144,0.048 0.348,0.096 0.612,0.144 0.864,0.21599 1.296,0.47999 1.296,0.792 0,0.21599 -0.264,0.32399 -0.792,0.324 l -3.384,-0.18 m 1.296,-19.764 -0.036,2.304 c 0,1.15201 0.024,2.30401 0.072,3.456 0.072,1.12801 0.396,1.968 0.972,2.52 0.576,0.528 1.656,0.792 3.24,0.792 0.91199,0 1.87199,-0.444 2.88,-1.332 0.50399,-0.45599 0.92399,-1.11599 1.26,-1.98 0.35999,-0.88799 0.53999,-1.93199 0.54,-3.132 -1e-5,-1.22399 -0.18001,-2.29199 -0.54,-3.204 -0.33601,-0.91199 -0.78001,-1.57199 -1.332,-1.98 -1.03201,-0.69598 -2.08801,-1.04398 -3.168,-1.044 -1.056,2e-5 -2.04,0.34802 -2.952,1.044 -0.552,0.40801 -0.864,1.26001 -0.936,2.556"
         style="font-size:36px"
         id="path4609" />
      <path
         d="m 203.1325,412.29018 -2.916,0.18 c -0.48,0 -0.72,-0.108 -0.72,-0.324 0,-0.24 0.336,-0.468 1.008,-0.684 0.672,-0.216 1.068,-0.432 1.188,-0.648 0.12,-0.24 0.18,-0.468 0.18,-0.684 l 0,-18.144 c 0,-1.51198 -0.552,-2.38797 -1.656,-2.628 -0.192,-0.048 -0.288,-0.19197 -0.288,-0.432 0,-0.26397 0.084,-0.41997 0.252,-0.468 0.6,-0.14397 1.992,-0.62397 4.176,-1.44 l 0.036,0 0.036,-0.036 c 0.14399,3e-5 0.21599,0.084 0.216,0.252 -1e-5,0.072 -0.024,0.28803 -0.072,0.648 -0.12001,0.93603 -0.18001,2.35202 -0.18,4.248 l 0,18 c -1e-5,0.48 0.14399,0.792 0.432,0.936 0.31199,0.144 0.70799,0.3 1.188,0.468 0.50399,0.168 0.75599,0.372 0.756,0.612 -10e-6,0.216 -0.24001,0.324 -0.72,0.324 l -2.916,-0.18"
         style="font-size:36px"
         id="path4611" />
      <path
         d="m 211.70894,393.89418 c -0.52801,-0.024 -0.96001,-0.20398 -1.296,-0.54 -0.33601,-0.33598 -0.504,-0.76798 -0.504,-1.296 0,-0.52798 0.16799,-0.95998 0.504,-1.296 0.33599,-0.33598 0.76799,-0.50398 1.296,-0.504 0.52799,2e-5 0.95999,0.16802 1.296,0.504 0.33599,0.33602 0.51599,0.78002 0.54,1.332 -0.024,0.50402 -0.20401,0.92402 -0.54,1.26 -0.33601,0.33602 -0.76801,0.51602 -1.296,0.54 m 0.252,18.396 -2.916,0.18 c -0.48,0 -0.72,-0.108 -0.72,-0.324 0,-0.24 0.336,-0.468 1.008,-0.684 0.67199,-0.216 1.06799,-0.432 1.188,-0.648 0.11999,-0.24 0.17999,-0.468 0.18,-0.684 l 0,-7.812 c -1e-5,-1.51199 -0.56401,-2.38798 -1.692,-2.628 -0.192,-0.048 -0.288,-0.19198 -0.288,-0.432 0,-0.26398 0.084,-0.41998 0.252,-0.468 1.17599,-0.28798 2.39999,-0.85198 3.672,-1.692 0.38399,-0.23998 0.59999,-0.35998 0.648,-0.36 0.16799,2e-5 0.25199,0.06 0.252,0.18 -0.21601,2.20802 -0.32401,3.82801 -0.324,4.86 l 0,8.352 c -1e-5,0.48 0.14399,0.792 0.432,0.936 0.31199,0.144 0.70799,0.3 1.188,0.468 0.50399,0.168 0.75599,0.372 0.756,0.612 -1e-5,0.216 -0.24001,0.324 -0.72,0.324 l -2.916,-0.18"
         style="font-size:36px"
         id="path4613" />
      <path
         d="m 229.606,399.79818 c -1e-5,0.19201 -0.18001,0.42001 -0.54,0.684 -0.33601,0.26401 -0.64801,0.39601 -0.936,0.396 -0.28801,1e-5 -0.55201,-0.11999 -0.792,-0.36 -0.64801,-0.69598 -1.16401,-1.15198 -1.548,-1.368 -0.38401,-0.21598 -0.99601,-0.32398 -1.836,-0.324 -1.24801,2e-5 -2.22001,0.54002 -2.916,1.62 -0.696,1.08001 -1.044,2.43601 -1.044,4.068 0,1.60801 0.528,3.09601 1.584,4.464 1.07999,1.344 2.45999,2.016 4.14,2.016 0.71999,0 1.29599,-0.132 1.728,-0.396 0.45599,-0.288 0.93599,-0.75599 1.44,-1.404 0.11999,-0.11999 0.22799,-0.17999 0.324,-0.18 0.096,10e-6 0.19199,0.06 0.288,0.18 0.096,0.096 0.14399,0.20401 0.144,0.324 -1e-5,0.72 -0.63601,1.464 -1.908,2.232 -1.24801,0.744 -2.68801,1.116 -4.32,1.116 -1.60801,0 -3,-0.684 -4.176,-2.052 -1.152,-1.39199 -1.728,-3.13199 -1.728,-5.22 0,-2.08799 0.72,-3.95999 2.16,-5.616 1.464,-1.65598 3.21599,-2.48398 5.256,-2.484 2.06399,2e-5 3.56399,0.57602 4.5,1.728 0.11999,0.16802 0.17999,0.36002 0.18,0.576"
         style="font-size:36px"
         id="path4615" />
      <path
         d="m 233.96031,409.23018 c 0,0.62401 0.192,1.116 0.576,1.476 0.384,0.336 0.852,0.504 1.404,0.504 0.552,0 1.2,-0.324 1.944,-0.972 0.26399,-0.216 0.40799,-0.69599 0.432,-1.44 l 0.072,-1.764 c 0.024,-0.50399 -0.084,-0.75599 -0.324,-0.756 -0.16801,10e-6 -0.33601,0.036 -0.504,0.108 -2.4,0.81601 -3.6,1.76401 -3.6,2.844 m 0.036,-8.172 0.036,0.504 c 0,0.21601 -0.348,0.48001 -1.044,0.792 -0.672,0.31201 -1.128,0.46801 -1.368,0.468 -0.24,10e-6 -0.36,-0.10799 -0.36,-0.324 0,-0.81599 0.408,-1.58399 1.224,-2.304 0.84,-0.74398 1.764,-1.37998 2.772,-1.908 1.008,-0.55198 1.932,-0.82798 2.772,-0.828 0.86399,2e-5 1.58399,0.31202 2.16,0.936 0.57599,0.62402 0.85199,1.38002 0.828,2.268 l -0.18,7.776 0,0.216 c -1e-5,1.704 0.43199,2.556 1.296,2.556 0.59999,0 1.07999,-0.168 1.44,-0.504 0.096,-0.096 0.21599,-0.096 0.36,0 0.14399,0.072 0.21599,0.18 0.216,0.324 l 0,0.036 c -0.14401,0.312 -0.51601,0.696 -1.116,1.152 -0.60001,0.432 -1.20001,0.648 -1.8,0.648 -0.57601,0 -1.06801,-0.156 -1.476,-0.468 -0.38401,-0.312 -0.66001,-0.624 -0.828,-0.936 -0.16801,-0.312 -0.27601,-0.468 -0.324,-0.468 -0.096,0 -0.31201,0.156 -0.648,0.468 -0.33601,0.312 -0.84,0.624 -1.512,0.936 -0.648,0.312 -1.38,0.468 -2.196,0.468 -0.792,0 -1.524,-0.3 -2.196,-0.9 -0.648,-0.6 -0.972,-1.248 -0.972,-1.944 0,-1.43999 0.876,-2.51999 2.628,-3.24 l 3.672,-1.512 c 0.45599,-0.19199 0.73199,-0.35999 0.828,-0.504 0.096,-0.14399 0.15599,-0.45599 0.18,-0.936 l 0.072,-2.232 0,-0.072 c -1e-5,-0.62399 -0.20401,-1.16399 -0.612,-1.62 -0.38401,-0.45598 -0.84,-0.68398 -1.368,-0.684 -0.504,2e-5 -0.984,0.13202 -1.44,0.396 -0.456,0.24002 -0.744,0.46801 -0.864,0.684 -0.12,0.21601 -0.18,0.46801 -0.18,0.756"
         style="font-size:36px"
         id="path4617" />
      <path
         d="m 250.96806,412.86618 c -1.176,0 -2.1,-0.348 -2.772,-1.044 -0.648,-0.72 -0.972,-1.8 -0.972,-3.24 l 0,-8.352 c 0,-0.21599 -0.096,-0.35998 -0.288,-0.432 -0.168,-0.072 -0.528,-0.10798 -1.08,-0.108 -0.072,2e-5 -0.168,-0.084 -0.288,-0.252 -0.096,-0.19198 -0.144,-0.33598 -0.144,-0.432 0,-0.11998 0.06,-0.21598 0.18,-0.288 0.552,-0.16798 1.116,-0.51598 1.692,-1.044 0.576,-0.52798 1.044,-1.01998 1.404,-1.476 0.36,-0.45598 0.576,-0.68398 0.648,-0.684 0.336,2e-5 0.504,0.12002 0.504,0.36 l -0.072,1.584 c 0,0.33602 0.288,0.50402 0.864,0.504 l 4.104,0 c 0.23999,2e-5 0.35999,0.28802 0.36,0.864 -1e-5,0.57602 -0.12001,0.86402 -0.36,0.864 l -3.564,0 c -0.648,2e-5 -1.056,0.048 -1.224,0.144 -0.144,0.096 -0.216,0.38401 -0.216,0.864 l 0,6.804 c 0,1.22401 0.228,2.10001 0.684,2.628 0.456,0.504 1.02,0.756 1.692,0.756 1.19999,0 2.09999,-0.228 2.7,-0.684 0.096,-0.072 0.17999,-0.048 0.252,0.072 0.072,0.096 0.10799,0.228 0.108,0.396 -1e-5,0.144 -0.19201,0.396 -0.576,0.756 -0.38401,0.336 -0.92401,0.66 -1.62,0.972 -0.67201,0.312 -1.344,0.468 -2.016,0.468"
         style="font-size:36px"
         id="path4619" />
      <path
         d="m 259.73237,393.89418 c -0.528,-0.024 -0.96,-0.20398 -1.296,-0.54 -0.336,-0.33598 -0.504,-0.76798 -0.504,-1.296 0,-0.52798 0.168,-0.95998 0.504,-1.296 0.336,-0.33598 0.768,-0.50398 1.296,-0.504 0.528,2e-5 0.96,0.16802 1.296,0.504 0.336,0.33602 0.516,0.78002 0.54,1.332 -0.024,0.50402 -0.204,0.92402 -0.54,1.26 -0.336,0.33602 -0.768,0.51602 -1.296,0.54 m 0.252,18.396 -2.916,0.18 c -0.48,0 -0.72,-0.108 -0.72,-0.324 0,-0.24 0.336,-0.468 1.00801,-0.684 0.67199,-0.216 1.06799,-0.432 1.18799,-0.648 0.12,-0.24 0.18,-0.468 0.18,-0.684 l 0,-7.812 c 0,-1.51199 -0.564,-2.38798 -1.692,-2.628 -0.192,-0.048 -0.288,-0.19198 -0.288,-0.432 0,-0.26398 0.084,-0.41998 0.252,-0.468 1.176,-0.28798 2.4,-0.85198 3.67201,-1.692 0.38399,-0.23998 0.59999,-0.35998 0.64799,-0.36 0.168,2e-5 0.252,0.06 0.252,0.18 -0.216,2.20802 -0.324,3.82801 -0.324,4.86 l 0,8.352 c 0,0.48 0.144,0.792 0.432,0.936 0.312,0.144 0.708,0.3 1.188,0.468 0.504,0.168 0.756,0.372 0.75601,0.612 -1e-5,0.216 -0.24001,0.324 -0.72001,0.324 l -2.916,-0.18"
         style="font-size:36px"
         id="path4621" />
      <path
         d="m 272.80544,398.57418 c -2.88001,2e-5 -4.32001,2.07601 -4.32,6.228 -10e-6,1.84801 0.47999,3.48001 1.44,4.896 0.95999,1.392 2.13599,2.088 3.528,2.088 1.79999,0 3.03599,-0.66 3.708,-1.98 0.47998,-0.93599 0.71998,-2.32799 0.72,-4.176 -2e-5,-1.84799 -0.48002,-3.47999 -1.44,-4.896 -0.96001,-1.43998 -2.17201,-2.15998 -3.636,-2.16 m -7.272,7.092 c 0,-2.08799 0.768,-3.97199 2.304,-5.652 1.55999,-1.70398 3.39599,-2.55598 5.508,-2.556 2.11199,2e-5 3.88798,0.72002 5.328,2.16 1.43998,1.41601 2.15998,3.18001 2.16,5.292 -2e-5,2.11201 -0.72002,3.97201 -2.16,5.58 -1.41602,1.584 -3.40801,2.376 -5.976,2.376 -2.04001,0 -3.74401,-0.684 -5.112,-2.052 -1.368,-1.36799 -2.052,-3.08399 -2.052,-5.148"
         style="font-size:36px"
         id="path4623" />
      <path
         d="m 296.6425,412.29018 -2.952,0.18 c -0.48001,0 -0.72001,-0.108 -0.72,-0.324 -1e-5,-0.24 0.27599,-0.456 0.828,-0.648 0.024,0 0.072,-0.012 0.144,-0.036 0.79199,-0.24 1.24799,-0.564 1.368,-0.972 0.024,-0.12 0.036,-0.24 0.036,-0.36 l 0,-7.56 c -10e-6,-1.03199 -0.30001,-1.84799 -0.9,-2.448 -0.60001,-0.59998 -1.48801,-0.89998 -2.664,-0.9 -1.15201,2e-5 -2.10001,0.25202 -2.844,0.756 -0.74401,0.50401 -1.11601,1.41601 -1.116,2.736 l 0,7.416 c -10e-6,0.48 0.14399,0.792 0.432,0.936 0.31199,0.144 0.70799,0.3 1.188,0.468 0.50399,0.168 0.75599,0.372 0.756,0.612 -1e-5,0.216 -0.24001,0.324 -0.72,0.324 l -2.916,-0.18 -2.916,0.18 c -0.48,0 -0.72,-0.108 -0.72,-0.324 0,-0.24 0.192,-0.42 0.576,-0.54 0.408,-0.144 0.636,-0.216 0.684,-0.216 0.072,-0.024 0.204,-0.084 0.396,-0.18 0.192,-0.096 0.312,-0.18 0.36,-0.252 0.24,-0.264 0.36,-0.54 0.36,-0.828 l 0,-7.74 c 0,-1.53599 -0.492,-2.39999 -1.476,-2.592 -0.192,-0.048 -0.288,-0.20398 -0.288,-0.468 0,-0.26398 0.084,-0.40798 0.252,-0.432 1.248,-0.28798 2.568,-0.94798 3.96,-1.98 0.024,-0.024 0.06,-0.036 0.108,-0.036 0.072,2e-5 0.14399,0.10802 0.216,0.324 l -0.252,2.34 c -10e-6,0.16802 0.012,0.26402 0.036,0.288 0.67199,-0.55198 1.57199,-1.07998 2.7,-1.584 1.15199,-0.52798 2.26799,-0.79198 3.348,-0.792 1.07999,2e-5 2.00399,0.48002 2.772,1.44 0.79198,0.96002 1.18798,2.14801 1.188,3.564 l 0,7.668 c -2e-5,0.48 0.14398,0.792 0.432,0.936 0.31198,0.144 0.70798,0.3 1.188,0.468 0.50398,0.168 0.75598,0.372 0.756,0.612 -2e-5,0.216 -0.24002,0.324 -0.72,0.324 l -2.88,-0.18"
         style="font-size:36px"
         id="path4625" />
    </g>
    <g
       id="g3936">
      <path
         style="opacity:0.20408164;fill:#000000;stroke:#000000;stroke-width:4;stroke-miterlimit:4;stroke-dashoffset:0"
         d="m 87.14286,432.36218 180,0 0,538.03577 -180,0 z"
         id="rect2995" />
      <g
         style="font-size:20px;font-style:normal;font-variant:normal;font-weight:300;font-stretch:normal;line-height:125%;letter-spacing:0px;word-spacing:0px;fill:#000000;fill-opacity:1;stroke:none;font-family:EB Garamond;-inkscape-font-specification:EB Garamond"
         id="text3063">
        <path
           d="m 135.868,448.89018 3.996,-0.216 c 2.71199,3e-5 4.93199,0.57603 6.66,1.728 1.72798,1.15202 2.59198,2.68802 2.592,4.608 -2e-5,2.35202 -0.70802,4.30802 -2.124,5.868 -1.41602,1.56001 -3.44401,2.34001 -6.084,2.34 -0.48001,10e-6 -0.87601,-0.072 -1.188,-0.216 -0.28801,-0.14399 -0.43201,-0.29999 -0.432,-0.468 -1e-5,-0.096 0.06,-0.17999 0.18,-0.252 0.14399,-0.096 0.27599,-0.14399 0.396,-0.144 l 0.54,0.072 c 0.35999,0.048 0.73199,0.084 1.116,0.108 2.90399,1e-5 4.35598,-2.14799 4.356,-6.444 -2e-5,-2.11198 -0.54002,-3.67198 -1.62,-4.68 -1.08001,-1.00798 -2.54401,-1.51197 -4.392,-1.512 -1.53601,3e-5 -2.30401,0.50402 -2.304,1.512 l 0,17.172 c -1e-5,1.8 0.80399,2.844 2.412,3.132 0.79199,0.144 1.18799,0.36 1.188,0.648 -1e-5,0.264 -0.34801,0.396 -1.044,0.396 -0.69601,0 -1.35601,-0.048 -1.98,-0.144 -0.62401,-0.072 -1.14001,-0.108 -1.548,-0.108 l -4.68,0.252 c -0.696,0 -1.044,-0.132 -1.044,-0.396 0,-0.288 0.432,-0.504 1.296,-0.648 0.864,-0.168 1.5,-0.444 1.908,-0.828 0.408,-0.408 0.612,-1.04399 0.612,-1.908 l 0,-15.192 c 0,-1.15198 -0.156,-2.00398 -0.468,-2.556 -0.288,-0.55198 -0.852,-0.89998 -1.692,-1.044 -0.816,-0.14397 -1.224,-0.38397 -1.224,-0.72 0,-0.26397 0.348,-0.39597 1.044,-0.396 l 3.528,0.036"
           style="font-size:36px"
           id="path4629" />
        <path
           d="m 154.21844,472.29018 -2.916,0.18 c -0.48,0 -0.72,-0.108 -0.72,-0.324 0,-0.24 0.336,-0.468 1.008,-0.684 0.672,-0.216 1.06799,-0.432 1.188,-0.648 0.11999,-0.24 0.17999,-0.468 0.18,-0.684 l 0,-18.144 c -1e-5,-1.51198 -0.55201,-2.38797 -1.656,-2.628 -0.192,-0.048 -0.288,-0.19197 -0.288,-0.432 0,-0.26397 0.084,-0.41997 0.252,-0.468 0.6,-0.14397 1.99199,-0.62397 4.176,-1.44 l 0.036,0 0.036,-0.036 c 0.14399,3e-5 0.21599,0.084 0.216,0.252 -10e-6,0.072 -0.024,0.28803 -0.072,0.648 -0.12001,0.93603 -0.18001,2.35202 -0.18,4.248 l 0,18 c -1e-5,0.48 0.14399,0.792 0.432,0.936 0.31199,0.144 0.70799,0.3 1.188,0.468 0.50399,0.168 0.75599,0.372 0.756,0.612 -1e-5,0.216 -0.24001,0.324 -0.72,0.324 l -2.916,-0.18"
           style="font-size:36px"
           id="path4631" />
        <path
           d="m 171.47087,472.90218 0.18,-2.376 0,-0.216 c -1.72801,1.704 -3.708,2.556 -5.94,2.556 -1.224,0 -2.22,-0.372 -2.988,-1.116 -0.744,-0.744 -1.116,-1.79999 -1.116,-3.168 l 0,-7.308 c 0,-0.95999 -0.516,-1.64398 -1.548,-2.052 -0.312,-0.096 -0.468,-0.28798 -0.468,-0.576 0,-0.31198 0.18,-0.50398 0.54,-0.576 0.84,-0.024 2.076,-0.22798 3.708,-0.612 0.168,-0.024 0.3,0.012 0.396,0.108 0.096,0.096 0.132,0.22802 0.108,0.396 -0.144,1.10402 -0.216,2.02801 -0.216,2.772 l 0,7.02 c 0,0.86401 0.312,1.63201 0.936,2.304 0.624,0.648 1.32,0.972 2.08801,0.972 1.39199,0 2.39998,-0.24 3.02399,-0.72 1.07999,-0.79199 1.61999,-1.69199 1.62,-2.7 l 0,-6.588 c -1e-5,-0.64799 -0.25201,-1.10398 -0.756,-1.368 -0.50401,-0.26398 -1.03201,-0.39598 -1.584,-0.396 -0.55201,-0.024 -0.82801,-0.23998 -0.828,-0.648 -1e-5,-0.19198 0.096,-0.32398 0.288,-0.396 0.21599,-0.096 0.53999,-0.14398 0.972,-0.144 0.43199,-0.024 0.86399,-0.048 1.296,-0.072 0.43199,-0.048 0.80399,-0.096 1.116,-0.144 0.31199,-0.048 0.52799,-0.084 0.648,-0.108 0.14399,2e-5 0.52799,-0.10798 1.152,-0.324 l 0.072,0 c 0.16799,2e-5 0.29999,0.072 0.396,0.216 0.11999,0.14402 0.10799,0.33602 -0.036,0.576 -0.14401,0.24002 -0.21601,1.04402 -0.216,2.412 l 0,7.632 c -1e-5,1.65601 0.21599,2.484 0.648,2.484 0.74399,0 1.29599,-0.036 1.656,-0.108 0.35999,-0.072 0.53999,0.072 0.54,0.432 -1e-5,0.36 -0.16801,0.54 -0.504,0.54 -1.24801,0.168 -2.34001,0.444 -3.276,0.828 -0.91201,0.408 -1.46401,0.612 -1.656,0.612 -0.16801,0 -0.25201,-0.048 -0.252,-0.144"
           style="font-size:36px"
           id="path4633" />
        <path
           d="m 180.48325,477.18618 c 0,1.224 0.408,2.22 1.224,2.988 0.83999,0.79199 1.96799,1.18799 3.384,1.188 1.41599,-1e-5 2.65199,-0.48001 3.708,-1.44 1.05599,-0.96 1.58399,-2.172 1.584,-3.636 -1e-5,-0.6 -0.30001,-1.104 -0.9,-1.512 -0.57601,-0.408 -1.27201,-0.696 -2.088,-0.864 -0.81601,-0.144 -1.95601,-0.252 -3.42,-0.324 l -0.828,0 c -0.28801,0.192 -0.888,0.744 -1.8,1.656 -0.576,0.672 -0.864,1.32 -0.864,1.944 m 7.668,-14.292 c -1e-5,-1.17599 -0.32401,-2.20799 -0.972,-3.096 -0.64801,-0.88798 -1.45201,-1.33198 -2.412,-1.332 -0.96001,2e-5 -1.72801,0.45602 -2.304,1.368 -0.576,0.88801 -0.864,1.87201 -0.864,2.952 0,1.08001 0.312,2.10001 0.936,3.06 0.64799,0.96001 1.43999,1.44001 2.376,1.44 0.93599,10e-6 1.70399,-0.44399 2.304,-1.332 0.62399,-0.88799 0.93599,-1.90799 0.936,-3.06 m 2.808,-4.392 1.152,-0.036 c 0.28799,2e-5 0.53998,0.012 0.756,0.036 0.21598,0.024 0.32398,0.25202 0.324,0.684 -2e-5,0.40802 -0.10802,0.61202 -0.324,0.612 -0.88801,2e-5 -1.39201,0.024 -1.512,0.072 -0.12001,0.048 -0.21601,0.096 -0.288,0.144 -0.072,0.024 -0.15601,0.048 -0.252,0.072 -0.096,0.26401 -0.14401,0.81601 -0.144,1.656 -10e-6,1.80001 -0.57601,3.38401 -1.728,4.752 -1.15201,1.36801 -2.59201,2.05201 -4.32,2.052 -0.76801,1e-5 -1.41601,-0.14399 -1.944,-0.432 -1.056,0.81601 -1.584,1.40401 -1.584,1.764 0,0.768 1.152,1.26 3.456,1.476 3.11999,0.288 4.94399,0.552 5.472,0.792 0.55199,0.24 1.04399,0.492 1.476,0.756 0.71999,0.456 1.07998,1.2 1.08,2.232 -2e-5,1.92 -0.87601,3.672 -2.628,5.256 -1.72801,1.60799 -3.51601,2.41199 -5.364,2.412 -1.82401,-1e-5 -3.396,-0.32401 -4.716,-0.972 -1.296,-0.64801 -1.944,-1.69201 -1.944,-3.132 0,-0.744 0.18,-1.392 0.54,-1.944 0.384,-0.528 1.008,-1.068 1.872,-1.62 0.888,-0.552 1.512,-1.104 1.872,-1.656 -0.816,-0.168 -1.56,-0.48 -2.232,-0.936 -0.672,-0.432 -1.008,-1.02 -1.008,-1.764 0,-0.456 0.276,-0.89999 0.828,-1.332 0.144,-0.096 0.372,-0.23999 0.684,-0.432 0.648,-0.38399 1.128,-0.79199 1.44,-1.224 -0.336,-0.072 -0.792,-0.38399 -1.368,-0.936 -1.176,-1.10399 -1.764,-2.43599 -1.764,-3.996 0,-1.55999 0.648,-2.85599 1.944,-3.888 1.296,-1.05598 2.78399,-1.58398 4.464,-1.584 0.59999,2e-5 1.30799,0.13202 2.124,0.396 1.51199,0.48002 2.72399,0.72002 3.636,0.72"
           style="font-size:36px"
           id="path4635" />
        <path
           d="m 197.45894,453.89418 c -0.52801,-0.024 -0.96001,-0.20398 -1.296,-0.54 -0.33601,-0.33598 -0.504,-0.76798 -0.504,-1.296 0,-0.52798 0.16799,-0.95998 0.504,-1.296 0.33599,-0.33598 0.76799,-0.50398 1.296,-0.504 0.52799,2e-5 0.95999,0.16802 1.296,0.504 0.33599,0.33602 0.51599,0.78002 0.54,1.332 -0.024,0.50402 -0.20401,0.92402 -0.54,1.26 -0.33601,0.33602 -0.76801,0.51602 -1.296,0.54 m 0.252,18.396 -2.916,0.18 c -0.48,0 -0.72,-0.108 -0.72,-0.324 0,-0.24 0.336,-0.468 1.008,-0.684 0.67199,-0.216 1.06799,-0.432 1.188,-0.648 0.11999,-0.24 0.17999,-0.468 0.18,-0.684 l 0,-7.812 c -1e-5,-1.51199 -0.56401,-2.38798 -1.692,-2.628 -0.192,-0.048 -0.288,-0.19198 -0.288,-0.432 0,-0.26398 0.084,-0.41998 0.252,-0.468 1.17599,-0.28798 2.39999,-0.85198 3.672,-1.692 0.38399,-0.23998 0.59999,-0.35998 0.648,-0.36 0.16799,2e-5 0.25199,0.06 0.252,0.18 -0.21601,2.20802 -0.32401,3.82801 -0.324,4.86 l 0,8.352 c -1e-5,0.48 0.14399,0.792 0.432,0.936 0.31199,0.144 0.70799,0.3 1.188,0.468 0.50399,0.168 0.75599,0.372 0.756,0.612 -1e-5,0.216 -0.24001,0.324 -0.72,0.324 l -2.916,-0.18"
           style="font-size:36px"
           id="path4637" />
        <path
           d="m 216.58,472.29018 -2.952,0.18 c -0.48001,0 -0.72001,-0.108 -0.72,-0.324 -10e-6,-0.24 0.27599,-0.456 0.828,-0.648 0.024,0 0.072,-0.012 0.144,-0.036 0.79199,-0.24 1.24799,-0.564 1.368,-0.972 0.024,-0.12 0.036,-0.24 0.036,-0.36 l 0,-7.56 c -1e-5,-1.03199 -0.30001,-1.84799 -0.9,-2.448 -0.60001,-0.59998 -1.48801,-0.89998 -2.664,-0.9 -1.15201,2e-5 -2.10001,0.25202 -2.844,0.756 -0.74401,0.50401 -1.11601,1.41601 -1.116,2.736 l 0,7.416 c -1e-5,0.48 0.14399,0.792 0.432,0.936 0.31199,0.144 0.70799,0.3 1.188,0.468 0.50399,0.168 0.75599,0.372 0.756,0.612 -1e-5,0.216 -0.24001,0.324 -0.72,0.324 l -2.916,-0.18 -2.916,0.18 c -0.48,0 -0.72,-0.108 -0.72,-0.324 0,-0.24 0.192,-0.42 0.576,-0.54 0.408,-0.144 0.636,-0.216 0.684,-0.216 0.072,-0.024 0.204,-0.084 0.396,-0.18 0.192,-0.096 0.312,-0.18 0.36,-0.252 0.24,-0.264 0.36,-0.54 0.36,-0.828 l 0,-7.74 c 0,-1.53599 -0.492,-2.39999 -1.476,-2.592 -0.192,-0.048 -0.288,-0.20398 -0.288,-0.468 0,-0.26398 0.084,-0.40798 0.252,-0.432 1.248,-0.28798 2.568,-0.94798 3.96,-1.98 0.024,-0.024 0.06,-0.036 0.108,-0.036 0.072,2e-5 0.14399,0.10802 0.216,0.324 l -0.252,2.34 c -1e-5,0.16802 0.012,0.26402 0.036,0.288 0.67199,-0.55198 1.57199,-1.07998 2.7,-1.584 1.15199,-0.52798 2.26799,-0.79198 3.348,-0.792 1.07999,2e-5 2.00399,0.48002 2.772,1.44 0.79198,0.96002 1.18798,2.14801 1.188,3.564 l 0,7.668 c -2e-5,0.48 0.14398,0.792 0.432,0.936 0.31198,0.144 0.70798,0.3 1.188,0.468 0.50398,0.168 0.75598,0.372 0.756,0.612 -2e-5,0.216 -0.24002,0.324 -0.72,0.324 l -2.88,-0.18"
           style="font-size:36px"
           id="path4639" />
      </g>
      <path
         transform="translate(-202.53558,80.478302)"
         style="opacity:0.20408164;fill:#000000;stroke:#000000;stroke-width:4;stroke-miterlimit:4;stroke-dashoffset:0"
         d="m 420,464.09448 c 0,22.09139 -17.90861,40 -40,40 -22.09139,0 -40,-17.90861 -40,-40 0,-22.09139 17.90861,-40 40,-40 22.09139,0 40,17.90861 40,40 z"
         id="path3067" />
      <path
         sodipodi:nodetypes="ccc"
         inkscape:connector-curvature="0"
         id="path3858"
         d="m 179.84375,540.26843 -2.53558,-31.7894 -2.46442,31.7894"
         style="opacity:0.38775509;fill:#000000;fill-opacity:1;stroke:#000000;stroke-width:1px;stroke-linecap:butt;stroke-linejoin:miter;stroke-opacity:1" />
      <path
         transform="translate(-1.6414979,303.94298)"
         style="opacity:0.38775509;fill:#000000;fill-opacity:1;stroke:none"
         d="m 185,243.09448 c 0,3.31371 -2.68629,6 -6,6 -3.31371,0 -6,-2.68629 -6,-6 0,-3.31371 2.68629,-6 6,-6 3.31371,0 6,2.68629 6,6 z"
         id="path3900" />
      <path
         transform="translate(-202.53558,179.04973)"
         style="opacity:0.20408164;fill:#000000;stroke:#000000;stroke-width:4;stroke-miterlimit:4;stroke-dashoffset:0"
         d="m 420,464.09448 c 0,22.09139 -17.90861,40 -40,40 -22.09139,0 -40,-17.90861 -40,-40 0,-22.09139 17.90861,-40 40,-40 22.09139,0 40,17.90861 40,40 z"
         id="path3067-9" />
      <path
         sodipodi:nodetypes="cccc"
         inkscape:connector-curvature="0"
         id="path3858-2"
         d="m 175.28764,638.01769 4,0 -2,-35 -2,35"
         style="opacity:0.383;fill:#000000;fill-opacity:1;stroke:#000000;stroke-width:1px;stroke-linecap:butt;stroke-linejoin:miter;stroke-opacity:1" />
      <path
         transform="translate(-1.6415,402.51441)"
         style="opacity:0.38299997;fill:#000000;fill-opacity:1;stroke:none"
         d="m 185,243.09448 c 0,3.31371 -2.68629,6 -6,6 -3.31371,0 -6,-2.68629 -6,-6 0,-3.31371 2.68629,-6 6,-6 3.31371,0 6,2.68629 6,6 z"
         id="path3900-5" />
      <path
         style="opacity:0.20400002;fill:#000000;fill-opacity:1;stroke:none"
         d="m 174.42892,704.48352 c 13.85,0 25,11.15 25,25 l 0,190 c 0,13.85 -11.15,25 -25,25 -13.85,0 -25,-11.15 -25,-25 l 0,-190 c 0,-13.85 11.15,-25 25,-25 z"
         id="rect3926" />
      <path
         sodipodi:nodetypes="cc"
         transform="translate(0,308.2677)"
         inkscape:connector-curvature="0"
         id="path3932"
         d="m 175,419.09448 0,195"
         style="opacity:0.38299997;fill:none;stroke:#000000;stroke-width:9.5;stroke-linecap:round;stroke-linejoin:miter;stroke-miterlimit:4;stroke-opacity:1;stroke-dasharray:none" />
      <path
         transform="translate(0,308.2677)"
         style="fill:#2e2e2e;fill-opacity:1;stroke:none"
         d="m 175,429.09448 c 5.54,0 10,4.46 10,10 l 0,15 c 0,5.54 -4.46,10 -10,10 -5.54,0 -10,-4.46 -10,-10 l 0,-15 c 0,-5.54 4.46,-10 10,-10 z"
         id="rect3934" />
    </g>
    <path
       style="opacity:0.20408164;fill:#000000;stroke:#000000;stroke-width:4;stroke-miterlimit:4;stroke-dashoffset:0"
       d="m 797.14288,432.36218 180,0 0,538.03577 -180,0 z"
       id="rect3958" />
    <g
       style="font-size:20px;font-style:normal;font-variant:normal;font-weight:300;font-stretch:normal;line-height:125%;letter-spacing:0px;word-spacing:0px;fill:#000000;fill-opacity:1;stroke:none;font-family:EB Garamond;-inkscape-font-specification:EB Garamond"
       id="text3960">
      <path
         d="m 845.868,448.89018 3.996,-0.216 c 2.71199,3e-5 4.93199,0.57603 6.66,1.728 1.72798,1.15202 2.59198,2.68802 2.592,4.608 -2e-5,2.35202 -0.70802,4.30802 -2.124,5.868 -1.41602,1.56001 -3.44401,2.34001 -6.084,2.34 -0.48001,10e-6 -0.87601,-0.072 -1.188,-0.216 -0.28801,-0.14399 -0.43201,-0.29999 -0.432,-0.468 -10e-6,-0.096 0.06,-0.17999 0.18,-0.252 0.14399,-0.096 0.27599,-0.14399 0.396,-0.144 l 0.54,0.072 c 0.35999,0.048 0.73199,0.084 1.116,0.108 2.90399,1e-5 4.35598,-2.14799 4.356,-6.444 -2e-5,-2.11198 -0.54002,-3.67198 -1.62,-4.68 -1.08001,-1.00798 -2.54401,-1.51197 -4.392,-1.512 -1.53601,3e-5 -2.30401,0.50402 -2.304,1.512 l 0,17.172 c -10e-6,1.8 0.80399,2.844 2.412,3.132 0.79199,0.144 1.18799,0.36 1.188,0.648 -10e-6,0.264 -0.34801,0.396 -1.044,0.396 -0.69601,0 -1.35601,-0.048 -1.98,-0.144 -0.62401,-0.072 -1.14001,-0.108 -1.548,-0.108 l -4.68,0.252 c -0.696,0 -1.044,-0.132 -1.044,-0.396 0,-0.288 0.432,-0.504 1.296,-0.648 0.864,-0.168 1.5,-0.444 1.908,-0.828 0.408,-0.408 0.612,-1.04399 0.612,-1.908 l 0,-15.192 c 0,-1.15198 -0.156,-2.00398 -0.468,-2.556 -0.288,-0.55198 -0.852,-0.89998 -1.692,-1.044 -0.816,-0.14397 -1.224,-0.38397 -1.224,-0.72 0,-0.26397 0.348,-0.39597 1.044,-0.396 l 3.528,0.036"
         style="font-size:36px"
         id="path4649" />
      <path
         d="m 864.21844,472.29018 -2.916,0.18 c -0.48,0 -0.72,-0.108 -0.72,-0.324 0,-0.24 0.336,-0.468 1.008,-0.684 0.672,-0.216 1.06799,-0.432 1.188,-0.648 0.11999,-0.24 0.17999,-0.468 0.18,-0.684 l 0,-18.144 c -10e-6,-1.51198 -0.55201,-2.38797 -1.656,-2.628 -0.192,-0.048 -0.288,-0.19197 -0.288,-0.432 0,-0.26397 0.084,-0.41997 0.252,-0.468 0.6,-0.14397 1.99199,-0.62397 4.176,-1.44 l 0.036,0 0.036,-0.036 c 0.14399,3e-5 0.21599,0.084 0.216,0.252 -1e-5,0.072 -0.024,0.28803 -0.072,0.648 -0.12001,0.93603 -0.18001,2.35202 -0.18,4.248 l 0,18 c -10e-6,0.48 0.14399,0.792 0.432,0.936 0.31199,0.144 0.70799,0.3 1.188,0.468 0.50399,0.168 0.75599,0.372 0.756,0.612 -10e-6,0.216 -0.24001,0.324 -0.72,0.324 l -2.916,-0.18"
         style="font-size:36px"
         id="path4651" />
      <path
         d="m 881.47087,472.90218 0.18001,-2.376 0,-0.216 c -1.72802,1.704 -3.70801,2.556 -5.94001,2.556 -1.224,0 -2.22,-0.372 -2.98799,-1.116 -0.74401,-0.744 -1.11601,-1.79999 -1.11601,-3.168 l 0,-7.308 c 0,-0.95999 -0.516,-1.64398 -1.548,-2.052 -0.312,-0.096 -0.468,-0.28798 -0.468,-0.576 0,-0.31198 0.18,-0.50398 0.54,-0.576 0.84,-0.024 2.076,-0.22798 3.70801,-0.612 0.16799,-0.024 0.29999,0.012 0.39599,0.108 0.096,0.096 0.132,0.22802 0.10801,0.396 -0.14401,1.10402 -0.21601,2.02801 -0.216,2.772 l 0,7.02 c -10e-6,0.86401 0.31199,1.63201 0.93599,2.304 0.624,0.648 1.32,0.972 2.08801,0.972 1.39199,0 2.39998,-0.24 3.024,-0.72 1.07998,-0.79199 1.61998,-1.69199 1.62,-2.7 l 0,-6.588 c -2e-5,-0.64799 -0.25202,-1.10398 -0.75601,-1.368 -0.50401,-0.26398 -1.03201,-0.39598 -1.58399,-0.396 -0.55202,-0.024 -0.82802,-0.23998 -0.828,-0.648 -2e-5,-0.19198 0.096,-0.32398 0.288,-0.396 0.21598,-0.096 0.53998,-0.14398 0.972,-0.144 0.43198,-0.024 0.86398,-0.048 1.29599,-0.072 0.43199,-0.048 0.80399,-0.096 1.116,-0.144 0.31199,-0.048 0.52799,-0.084 0.648,-0.108 0.14399,2e-5 0.52799,-0.10798 1.15201,-0.324 l 0.072,0 c 0.16798,2e-5 0.29998,0.072 0.39599,0.216 0.11999,0.14402 0.10799,0.33602 -0.036,0.576 -0.14402,0.24002 -0.21602,1.04402 -0.216,2.412 l 0,7.632 c -2e-5,1.65601 0.21598,2.484 0.648,2.484 0.74398,0 1.29598,-0.036 1.65599,-0.108 0.35999,-0.072 0.53999,0.072 0.54,0.432 -10e-6,0.36 -0.16801,0.54 -0.504,0.54 -1.24801,0.168 -2.34001,0.444 -3.276,0.828 -0.91201,0.408 -1.46401,0.612 -1.65599,0.612 -0.16802,0 -0.25202,-0.048 -0.25201,-0.144"
         style="font-size:36px"
         id="path4653" />
      <path
         d="m 890.48325,477.18618 c 0,1.224 0.408,2.22 1.224,2.988 0.83999,0.79199 1.96799,1.18799 3.384,1.188 1.41599,-1e-5 2.65199,-0.48001 3.708,-1.44 1.05599,-0.96 1.58399,-2.172 1.584,-3.636 -10e-6,-0.6 -0.30001,-1.104 -0.9,-1.512 -0.57601,-0.408 -1.27201,-0.696 -2.088,-0.864 -0.81601,-0.144 -1.95601,-0.252 -3.42,-0.324 l -0.828,0 c -0.28801,0.192 -0.888,0.744 -1.8,1.656 -0.576,0.672 -0.864,1.32 -0.864,1.944 m 7.668,-14.292 c -10e-6,-1.17599 -0.32401,-2.20799 -0.972,-3.096 -0.64801,-0.88798 -1.45201,-1.33198 -2.412,-1.332 -0.96001,2e-5 -1.72801,0.45602 -2.304,1.368 -0.576,0.88801 -0.864,1.87201 -0.864,2.952 0,1.08001 0.312,2.10001 0.936,3.06 0.64799,0.96001 1.43999,1.44001 2.376,1.44 0.93599,10e-6 1.70399,-0.44399 2.304,-1.332 0.62399,-0.88799 0.93599,-1.90799 0.936,-3.06 m 2.808,-4.392 1.152,-0.036 c 0.28799,2e-5 0.53998,0.012 0.756,0.036 0.21598,0.024 0.32398,0.25202 0.324,0.684 -2e-5,0.40802 -0.10802,0.61202 -0.324,0.612 -0.88801,2e-5 -1.39201,0.024 -1.512,0.072 -0.12001,0.048 -0.21601,0.096 -0.288,0.144 -0.072,0.024 -0.15601,0.048 -0.252,0.072 -0.096,0.26401 -0.14401,0.81601 -0.144,1.656 -10e-6,1.80001 -0.57601,3.38401 -1.728,4.752 -1.15201,1.36801 -2.59201,2.05201 -4.32,2.052 -0.76801,1e-5 -1.41601,-0.14399 -1.944,-0.432 -1.056,0.81601 -1.584,1.40401 -1.584,1.764 0,0.768 1.152,1.26 3.456,1.476 3.11999,0.288 4.94399,0.552 5.472,0.792 0.55199,0.24 1.04399,0.492 1.476,0.756 0.71999,0.456 1.07998,1.2 1.08,2.232 -2e-5,1.92 -0.87601,3.672 -2.628,5.256 -1.72801,1.60799 -3.51601,2.41199 -5.364,2.412 -1.82401,-1e-5 -3.396,-0.32401 -4.716,-0.972 -1.296,-0.64801 -1.944,-1.69201 -1.944,-3.132 0,-0.744 0.18,-1.392 0.54,-1.944 0.384,-0.528 1.008,-1.068 1.872,-1.62 0.888,-0.552 1.512,-1.104 1.872,-1.656 -0.816,-0.168 -1.56,-0.48 -2.232,-0.936 -0.672,-0.432 -1.008,-1.02 -1.008,-1.764 0,-0.456 0.276,-0.89999 0.828,-1.332 0.144,-0.096 0.372,-0.23999 0.684,-0.432 0.648,-0.38399 1.128,-0.79199 1.44,-1.224 -0.336,-0.072 -0.792,-0.38399 -1.368,-0.936 -1.176,-1.10399 -1.764,-2.43599 -1.764,-3.996 0,-1.55999 0.648,-2.85599 1.944,-3.888 1.296,-1.05598 2.78399,-1.58398 4.464,-1.584 0.59999,2e-5 1.30799,0.13202 2.124,0.396 1.51199,0.48002 2.72399,0.72002 3.636,0.72"
         style="font-size:36px"
         id="path4655" />
      <path
         d="m 907.45894,453.89418 c -0.52801,-0.024 -0.96001,-0.20398 -1.296,-0.54 -0.33601,-0.33598 -0.504,-0.76798 -0.504,-1.296 0,-0.52798 0.16799,-0.95998 0.504,-1.296 0.33599,-0.33598 0.76799,-0.50398 1.296,-0.504 0.52799,2e-5 0.95999,0.16802 1.296,0.504 0.33599,0.33602 0.51599,0.78002 0.54,1.332 -0.024,0.50402 -0.20401,0.92402 -0.54,1.26 -0.33601,0.33602 -0.76801,0.51602 -1.296,0.54 m 0.252,18.396 -2.916,0.18 c -0.48,0 -0.72,-0.108 -0.72,-0.324 0,-0.24 0.336,-0.468 1.008,-0.684 0.67199,-0.216 1.06799,-0.432 1.188,-0.648 0.11999,-0.24 0.17999,-0.468 0.18,-0.684 l 0,-7.812 c -10e-6,-1.51199 -0.56401,-2.38798 -1.692,-2.628 -0.192,-0.048 -0.288,-0.19198 -0.288,-0.432 0,-0.26398 0.084,-0.41998 0.252,-0.468 1.17599,-0.28798 2.39999,-0.85198 3.672,-1.692 0.38399,-0.23998 0.59999,-0.35998 0.648,-0.36 0.16799,2e-5 0.25199,0.06 0.252,0.18 -0.21601,2.20802 -0.32401,3.82801 -0.324,4.86 l 0,8.352 c -1e-5,0.48 0.14399,0.792 0.432,0.936 0.31199,0.144 0.70799,0.3 1.188,0.468 0.50399,0.168 0.75599,0.372 0.756,0.612 -10e-6,0.216 -0.24001,0.324 -0.72,0.324 l -2.916,-0.18"
         style="font-size:36px"
         id="path4657" />
      <path
         d="m 926.58,472.29018 -2.952,0.18 c -0.48001,0 -0.72001,-0.108 -0.72,-0.324 -10e-6,-0.24 0.27599,-0.456 0.828,-0.648 0.024,0 0.072,-0.012 0.144,-0.036 0.79199,-0.24 1.24799,-0.564 1.368,-0.972 0.024,-0.12 0.036,-0.24 0.036,-0.36 l 0,-7.56 c -10e-6,-1.03199 -0.30001,-1.84799 -0.9,-2.448 -0.60001,-0.59998 -1.48801,-0.89998 -2.664,-0.9 -1.15201,2e-5 -2.10001,0.25202 -2.844,0.756 -0.74401,0.50401 -1.11601,1.41601 -1.116,2.736 l 0,7.416 c -10e-6,0.48 0.14399,0.792 0.432,0.936 0.31199,0.144 0.70799,0.3 1.188,0.468 0.50399,0.168 0.75599,0.372 0.756,0.612 -10e-6,0.216 -0.24001,0.324 -0.72,0.324 l -2.916,-0.18 -2.916,0.18 c -0.48,0 -0.72,-0.108 -0.72,-0.324 0,-0.24 0.192,-0.42 0.576,-0.54 0.408,-0.144 0.636,-0.216 0.684,-0.216 0.072,-0.024 0.204,-0.084 0.396,-0.18 0.192,-0.096 0.312,-0.18 0.36,-0.252 0.24,-0.264 0.36,-0.54 0.36,-0.828 l 0,-7.74 c 0,-1.53599 -0.492,-2.39999 -1.476,-2.592 -0.192,-0.048 -0.288,-0.20398 -0.288,-0.468 0,-0.26398 0.084,-0.40798 0.252,-0.432 1.248,-0.28798 2.568,-0.94798 3.96,-1.98 0.024,-0.024 0.06,-0.036 0.108,-0.036 0.072,2e-5 0.14399,0.10802 0.216,0.324 l -0.252,2.34 c -10e-6,0.16802 0.012,0.26402 0.036,0.288 0.67199,-0.55198 1.57199,-1.07998 2.7,-1.584 1.15199,-0.52798 2.26799,-0.79198 3.348,-0.792 1.07999,2e-5 2.00399,0.48002 2.772,1.44 0.79198,0.96002 1.18798,2.14801 1.188,3.564 l 0,7.668 c -2e-5,0.48 0.14398,0.792 0.432,0.936 0.31198,0.144 0.70798,0.3 1.188,0.468 0.50398,0.168 0.75598,0.372 0.756,0.612 -2e-5,0.216 -0.24002,0.324 -0.72,0.324 l -2.88,-0.18"
         style="font-size:36px"
         id="path4659" />
    </g>
    <path
       transform="translate(507.46442,80.478302)"
       style="opacity:0.20408164;fill:#000000;stroke:#000000;stroke-width:4;stroke-miterlimit:4;stroke-dashoffset:0"
       d="m 420,464.09448 c 0,22.09139 -17.90861,40 -40,40 -22.09139,0 -40,-17.90861 -40,-40 0,-22.09139 17.90861,-40 40,-40 22.09139,0 40,17.90861 40,40 z"
       id="path3964" />
    <path
       sodipodi:nodetypes="ccc"
       inkscape:connector-curvature="0"
       id="path3966"
       d="m 889.84375,540.26843 -2.53558,-31.7894 -2.46442,31.7894"
       style="opacity:0.38775509;fill:#000000;fill-opacity:1;stroke:#000000;stroke-width:1px;stroke-linecap:butt;stroke-linejoin:miter;stroke-opacity:1" />
    <path
       transform="translate(708.3585,303.94298)"
       style="opacity:0.38775509;fill:#000000;fill-opacity:1;stroke:none"
       d="m 185,243.09448 c 0,3.31371 -2.68629,6 -6,6 -3.31371,0 -6,-2.68629 -6,-6 0,-3.31371 2.68629,-6 6,-6 3.31371,0 6,2.68629 6,6 z"
       id="path3968" />
    <path
       transform="translate(507.46442,179.04973)"
       style="opacity:0.20408164;fill:#000000;stroke:#000000;stroke-width:4;stroke-miterlimit:4;stroke-dashoffset:0"
       d="m 420,464.09448 c 0,22.09139 -17.90861,40 -40,40 -22.09139,0 -40,-17.90861 -40,-40 0,-22.09139 17.90861,-40 40,-40 22.09139,0 40,17.90861 40,40 z"
       id="path3970" />
    <path
       sodipodi:nodetypes="cccc"
       inkscape:connector-curvature="0"
       id="path3972"
       d="m 885.28764,638.01769 4,0 -2,-35 -2,35"
       style="opacity:0.38299997;fill:#000000;fill-opacity:1;stroke:#000000;stroke-width:1px;stroke-linecap:butt;stroke-linejoin:miter;stroke-opacity:1" />
    <path
       transform="translate(708.3585,402.51441)"
       style="opacity:0.38299997;fill:#000000;fill-opacity:1;stroke:none"
       d="m 185,243.09448 c 0,3.31371 -2.68629,6 -6,6 -3.31371,0 -6,-2.68629 -6,-6 0,-3.31371 2.68629,-6 6,-6 3.31371,0 6,2.68629 6,6 z"
       id="path3974" />
    <path
       style="opacity:0.20400002;fill:#000000;fill-opacity:1;stroke:none"
       d="m 884.42896,704.48352 c 13.85,0 25,11.15 25,25 l 0,190 c 0,13.85 -11.15,25 -25,25 -13.85,0 -25,-11.15 -25,-25 l 0,-190 c 0,-13.85 11.15,-25 25,-25 z"
       id="rect3976" />
    <path
       sodipodi:nodetypes="cc"
       inkscape:connector-curvature="0"
       id="path3978"
       d="m 885,727.36218 0,195"
       style="opacity:0.38299997;fill:none;stroke:#000000;stroke-width:9.5;stroke-linecap:round;stroke-linejoin:miter;stroke-miterlimit:4;stroke-opacity:1;stroke-dasharray:none" />
    <path
       style="fill:#2e2e2e;fill-opacity:1;stroke:none"
       d="m 885,870.36218 c 5.54,0 10,4.46 10,10 l 0,15 c 0,5.54 -4.46,10 -10,10 -5.54,0 -10,-4.46 -10,-10 l 0,-15 c 0,-5.54 4.46,-10 10,-10 z"
       id="rect3980" />
    <path
       style="opacity:0.20408164;fill:#000000;stroke:#000000;stroke-width:4;stroke-miterlimit:4;stroke-dashoffset:0"
       d="m 557.14288,432.36218 180,0 0,538.03577 -180,0 z"
       id="rect3984" />
    <g
       style="font-size:20px;font-style:normal;font-variant:normal;font-weight:300;font-stretch:normal;line-height:125%;letter-spacing:0px;word-spacing:0px;fill:#000000;fill-opacity:1;stroke:none;font-family:EB Garamond;-inkscape-font-specification:EB Garamond"
       id="text3986">
      <path
         d="m 605.868,448.89018 3.996,-0.216 c 2.71199,3e-5 4.93199,0.57603 6.66,1.728 1.72798,1.15202 2.59198,2.68802 2.592,4.608 -2e-5,2.35202 -0.70802,4.30802 -2.124,5.868 -1.41602,1.56001 -3.44401,2.34001 -6.084,2.34 -0.48001,10e-6 -0.87601,-0.072 -1.188,-0.216 -0.28801,-0.14399 -0.43201,-0.29999 -0.432,-0.468 -10e-6,-0.096 0.06,-0.17999 0.18,-0.252 0.14399,-0.096 0.27599,-0.14399 0.396,-0.144 l 0.54,0.072 c 0.35999,0.048 0.73199,0.084 1.116,0.108 2.90399,1e-5 4.35598,-2.14799 4.356,-6.444 -2e-5,-2.11198 -0.54002,-3.67198 -1.62,-4.68 -1.08001,-1.00798 -2.54401,-1.51197 -4.392,-1.512 -1.53601,3e-5 -2.30401,0.50402 -2.304,1.512 l 0,17.172 c -10e-6,1.8 0.80399,2.844 2.412,3.132 0.79199,0.144 1.18799,0.36 1.188,0.648 -10e-6,0.264 -0.34801,0.396 -1.044,0.396 -0.69601,0 -1.35601,-0.048 -1.98,-0.144 -0.62401,-0.072 -1.14001,-0.108 -1.548,-0.108 l -4.68,0.252 c -0.696,0 -1.044,-0.132 -1.044,-0.396 0,-0.288 0.432,-0.504 1.296,-0.648 0.864,-0.168 1.5,-0.444 1.908,-0.828 0.408,-0.408 0.612,-1.04399 0.612,-1.908 l 0,-15.192 c 0,-1.15198 -0.156,-2.00398 -0.468,-2.556 -0.288,-0.55198 -0.852,-0.89998 -1.692,-1.044 -0.816,-0.14397 -1.224,-0.38397 -1.224,-0.72 0,-0.26397 0.348,-0.39597 1.044,-0.396 l 3.528,0.036"
         style="font-size:36px"
         id="path4669" />
      <path
         d="m 624.21844,472.29018 -2.916,0.18 c -0.48,0 -0.72,-0.108 -0.72,-0.324 0,-0.24 0.336,-0.468 1.008,-0.684 0.672,-0.216 1.06799,-0.432 1.188,-0.648 0.11999,-0.24 0.17999,-0.468 0.18,-0.684 l 0,-18.144 c -10e-6,-1.51198 -0.55201,-2.38797 -1.656,-2.628 -0.192,-0.048 -0.288,-0.19197 -0.288,-0.432 0,-0.26397 0.084,-0.41997 0.252,-0.468 0.6,-0.14397 1.99199,-0.62397 4.176,-1.44 l 0.036,0 0.036,-0.036 c 0.14399,3e-5 0.21599,0.084 0.216,0.252 -1e-5,0.072 -0.024,0.28803 -0.072,0.648 -0.12001,0.93603 -0.18001,2.35202 -0.18,4.248 l 0,18 c -10e-6,0.48 0.14399,0.792 0.432,0.936 0.31199,0.144 0.70799,0.3 1.188,0.468 0.50399,0.168 0.75599,0.372 0.756,0.612 -10e-6,0.216 -0.24001,0.324 -0.72,0.324 l -2.916,-0.18"
         style="font-size:36px"
         id="path4671" />
      <path
         d="m 641.47087,472.90218 0.18001,-2.376 0,-0.216 c -1.72802,1.704 -3.70801,2.556 -5.94001,2.556 -1.224,0 -2.22,-0.372 -2.98799,-1.116 -0.74401,-0.744 -1.11601,-1.79999 -1.11601,-3.168 l 0,-7.308 c 0,-0.95999 -0.516,-1.64398 -1.548,-2.052 -0.312,-0.096 -0.468,-0.28798 -0.468,-0.576 0,-0.31198 0.18,-0.50398 0.54,-0.576 0.84,-0.024 2.076,-0.22798 3.70801,-0.612 0.16799,-0.024 0.29999,0.012 0.39599,0.108 0.096,0.096 0.132,0.22802 0.10801,0.396 -0.14401,1.10402 -0.21601,2.02801 -0.216,2.772 l 0,7.02 c -10e-6,0.86401 0.31199,1.63201 0.93599,2.304 0.624,0.648 1.32,0.972 2.08801,0.972 1.39199,0 2.39998,-0.24 3.024,-0.72 1.07998,-0.79199 1.61998,-1.69199 1.62,-2.7 l 0,-6.588 c -2e-5,-0.64799 -0.25202,-1.10398 -0.75601,-1.368 -0.50401,-0.26398 -1.03201,-0.39598 -1.58399,-0.396 -0.55202,-0.024 -0.82802,-0.23998 -0.828,-0.648 -2e-5,-0.19198 0.096,-0.32398 0.288,-0.396 0.21598,-0.096 0.53998,-0.14398 0.972,-0.144 0.43198,-0.024 0.86398,-0.048 1.29599,-0.072 0.43199,-0.048 0.80399,-0.096 1.116,-0.144 0.31199,-0.048 0.52799,-0.084 0.648,-0.108 0.14399,2e-5 0.52799,-0.10798 1.15201,-0.324 l 0.072,0 c 0.16798,2e-5 0.29998,0.072 0.39599,0.216 0.11999,0.14402 0.10799,0.33602 -0.036,0.576 -0.14402,0.24002 -0.21602,1.04402 -0.216,2.412 l 0,7.632 c -2e-5,1.65601 0.21598,2.484 0.648,2.484 0.74398,0 1.29598,-0.036 1.65599,-0.108 0.35999,-0.072 0.53999,0.072 0.54,0.432 -10e-6,0.36 -0.16801,0.54 -0.504,0.54 -1.24801,0.168 -2.34001,0.444 -3.276,0.828 -0.91201,0.408 -1.46401,0.612 -1.65599,0.612 -0.16802,0 -0.25202,-0.048 -0.25201,-0.144"
         style="font-size:36px"
         id="path4673" />
      <path
         d="m 650.48325,477.18618 c 0,1.224 0.408,2.22 1.224,2.988 0.83999,0.79199 1.96799,1.18799 3.384,1.188 1.41599,-1e-5 2.65199,-0.48001 3.708,-1.44 1.05599,-0.96 1.58399,-2.172 1.584,-3.636 -10e-6,-0.6 -0.30001,-1.104 -0.9,-1.512 -0.57601,-0.408 -1.27201,-0.696 -2.088,-0.864 -0.81601,-0.144 -1.95601,-0.252 -3.42,-0.324 l -0.828,0 c -0.28801,0.192 -0.888,0.744 -1.8,1.656 -0.576,0.672 -0.864,1.32 -0.864,1.944 m 7.668,-14.292 c -10e-6,-1.17599 -0.32401,-2.20799 -0.972,-3.096 -0.64801,-0.88798 -1.45201,-1.33198 -2.412,-1.332 -0.96001,2e-5 -1.72801,0.45602 -2.304,1.368 -0.576,0.88801 -0.864,1.87201 -0.864,2.952 0,1.08001 0.312,2.10001 0.936,3.06 0.64799,0.96001 1.43999,1.44001 2.376,1.44 0.93599,10e-6 1.70399,-0.44399 2.304,-1.332 0.62399,-0.88799 0.93599,-1.90799 0.936,-3.06 m 2.808,-4.392 1.152,-0.036 c 0.28799,2e-5 0.53998,0.012 0.756,0.036 0.21598,0.024 0.32398,0.25202 0.324,0.684 -2e-5,0.40802 -0.10802,0.61202 -0.324,0.612 -0.88801,2e-5 -1.39201,0.024 -1.512,0.072 -0.12001,0.048 -0.21601,0.096 -0.288,0.144 -0.072,0.024 -0.15601,0.048 -0.252,0.072 -0.096,0.26401 -0.14401,0.81601 -0.144,1.656 -10e-6,1.80001 -0.57601,3.38401 -1.728,4.752 -1.15201,1.36801 -2.59201,2.05201 -4.32,2.052 -0.76801,1e-5 -1.41601,-0.14399 -1.944,-0.432 -1.056,0.81601 -1.584,1.40401 -1.584,1.764 0,0.768 1.152,1.26 3.456,1.476 3.11999,0.288 4.94399,0.552 5.472,0.792 0.55199,0.24 1.04399,0.492 1.476,0.756 0.71999,0.456 1.07998,1.2 1.08,2.232 -2e-5,1.92 -0.87601,3.672 -2.628,5.256 -1.72801,1.60799 -3.51601,2.41199 -5.364,2.412 -1.82401,-1e-5 -3.396,-0.32401 -4.716,-0.972 -1.296,-0.64801 -1.944,-1.69201 -1.944,-3.132 0,-0.744 0.18,-1.392 0.54,-1.944 0.384,-0.528 1.008,-1.068 1.872,-1.62 0.888,-0.552 1.512,-1.104 1.872,-1.656 -0.816,-0.168 -1.56,-0.48 -2.232,-0.936 -0.672,-0.432 -1.008,-1.02 -1.008,-1.764 0,-0.456 0.276,-0.89999 0.828,-1.332 0.144,-0.096 0.372,-0.23999 0.684,-0.432 0.648,-0.38399 1.128,-0.79199 1.44,-1.224 -0.336,-0.072 -0.792,-0.38399 -1.368,-0.936 -1.176,-1.10399 -1.764,-2.43599 -1.764,-3.996 0,-1.55999 0.648,-2.85599 1.944,-3.888 1.296,-1.05598 2.78399,-1.58398 4.464,-1.584 0.59999,2e-5 1.30799,0.13202 2.124,0.396 1.51199,0.48002 2.72399,0.72002 3.636,0.72"
         style="font-size:36px"
         id="path4675" />
      <path
         d="m 667.45894,453.89418 c -0.52801,-0.024 -0.96001,-0.20398 -1.296,-0.54 -0.33601,-0.33598 -0.504,-0.76798 -0.504,-1.296 0,-0.52798 0.16799,-0.95998 0.504,-1.296 0.33599,-0.33598 0.76799,-0.50398 1.296,-0.504 0.52799,2e-5 0.95999,0.16802 1.296,0.504 0.33599,0.33602 0.51599,0.78002 0.54,1.332 -0.024,0.50402 -0.20401,0.92402 -0.54,1.26 -0.33601,0.33602 -0.76801,0.51602 -1.296,0.54 m 0.252,18.396 -2.916,0.18 c -0.48,0 -0.72,-0.108 -0.72,-0.324 0,-0.24 0.336,-0.468 1.008,-0.684 0.67199,-0.216 1.06799,-0.432 1.188,-0.648 0.11999,-0.24 0.17999,-0.468 0.18,-0.684 l 0,-7.812 c -10e-6,-1.51199 -0.56401,-2.38798 -1.692,-2.628 -0.192,-0.048 -0.288,-0.19198 -0.288,-0.432 0,-0.26398 0.084,-0.41998 0.252,-0.468 1.17599,-0.28798 2.39999,-0.85198 3.672,-1.692 0.38399,-0.23998 0.59999,-0.35998 0.648,-0.36 0.16799,2e-5 0.25199,0.06 0.252,0.18 -0.21601,2.20802 -0.32401,3.82801 -0.324,4.86 l 0,8.352 c -1e-5,0.48 0.14399,0.792 0.432,0.936 0.31199,0.144 0.70799,0.3 1.188,0.468 0.50399,0.168 0.75599,0.372 0.756,0.612 -10e-6,0.216 -0.24001,0.324 -0.72,0.324 l -2.916,-0.18"
         style="font-size:36px"
         id="path4677" />
      <path
         d="m 686.58,472.29018 -2.952,0.18 c -0.48001,0 -0.72001,-0.108 -0.72,-0.324 -10e-6,-0.24 0.27599,-0.456 0.828,-0.648 0.024,0 0.072,-0.012 0.144,-0.036 0.79199,-0.24 1.24799,-0.564 1.368,-0.972 0.024,-0.12 0.036,-0.24 0.036,-0.36 l 0,-7.56 c -10e-6,-1.03199 -0.30001,-1.84799 -0.9,-2.448 -0.60001,-0.59998 -1.48801,-0.89998 -2.664,-0.9 -1.15201,2e-5 -2.10001,0.25202 -2.844,0.756 -0.74401,0.50401 -1.11601,1.41601 -1.116,2.736 l 0,7.416 c -10e-6,0.48 0.14399,0.792 0.432,0.936 0.31199,0.144 0.70799,0.3 1.188,0.468 0.50399,0.168 0.75599,0.372 0.756,0.612 -10e-6,0.216 -0.24001,0.324 -0.72,0.324 l -2.916,-0.18 -2.916,0.18 c -0.48,0 -0.72,-0.108 -0.72,-0.324 0,-0.24 0.192,-0.42 0.576,-0.54 0.408,-0.144 0.636,-0.216 0.684,-0.216 0.072,-0.024 0.204,-0.084 0.396,-0.18 0.192,-0.096 0.312,-0.18 0.36,-0.252 0.24,-0.264 0.36,-0.54 0.36,-0.828 l 0,-7.74 c 0,-1.53599 -0.492,-2.39999 -1.476,-2.592 -0.192,-0.048 -0.288,-0.20398 -0.288,-0.468 0,-0.26398 0.084,-0.40798 0.252,-0.432 1.248,-0.28798 2.568,-0.94798 3.96,-1.98 0.024,-0.024 0.06,-0.036 0.108,-0.036 0.072,2e-5 0.14399,0.10802 0.216,0.324 l -0.252,2.34 c -10e-6,0.16802 0.012,0.26402 0.036,0.288 0.67199,-0.55198 1.57199,-1.07998 2.7,-1.584 1.15199,-0.52798 2.26799,-0.79198 3.348,-0.792 1.07999,2e-5 2.00399,0.48002 2.772,1.44 0.79198,0.96002 1.18798,2.14801 1.188,3.564 l 0,7.668 c -2e-5,0.48 0.14398,0.792 0.432,0.936 0.31198,0.144 0.70798,0.3 1.188,0.468 0.50398,0.168 0.75598,0.372 0.756,0.612 -2e-5,0.216 -0.24002,0.324 -0.72,0.324 l -2.88,-0.18"
         style="font-size:36px"
         id="path4679" />
    </g>
    <path
       transform="translate(267.46442,80.478302)"
       style="opacity:0.20408164;fill:#000000;stroke:#000000;stroke-width:4;stroke-miterlimit:4;stroke-dashoffset:0"
       d="m 420,464.09448 c 0,22.09139 -17.90861,40 -40,40 -22.09139,0 -40,-17.90861 -40,-40 0,-22.09139 17.90861,-40 40,-40 22.09139,0 40,17.90861 40,40 z"
       id="path3990" />
    <path
       style="opacity:0.38775509;fill:#000000;fill-opacity:1;stroke:#000000;stroke-width:1px;stroke-linecap:butt;stroke-linejoin:miter;stroke-opacity:1"
       d="m 649.84375,540.26843 -2.53558,-31.7894 -2.46442,31.7894"
       id="path3992"
       inkscape:connector-curvature="0"
       sodipodi:nodetypes="ccc" />
    <path
       transform="translate(468.3585,303.94298)"
       style="opacity:0.38775509;fill:#000000;fill-opacity:1;stroke:none"
       d="m 185,243.09448 c 0,3.31371 -2.68629,6 -6,6 -3.31371,0 -6,-2.68629 -6,-6 0,-3.31371 2.68629,-6 6,-6 3.31371,0 6,2.68629 6,6 z"
       id="path3994" />
    <path
       transform="translate(267.46442,179.04973)"
       style="opacity:0.20408164;fill:#000000;stroke:#000000;stroke-width:4;stroke-miterlimit:4;stroke-dashoffset:0"
       d="m 420,464.09448 c 0,22.09139 -17.90861,40 -40,40 -22.09139,0 -40,-17.90861 -40,-40 0,-22.09139 17.90861,-40 40,-40 22.09139,0 40,17.90861 40,40 z"
       id="path3996" />
    <path
       style="opacity:0.38299997;fill:#000000;fill-opacity:1;stroke:#000000;stroke-width:1px;stroke-linecap:butt;stroke-linejoin:miter;stroke-opacity:1"
       d="m 645.28764,638.01769 4,0 -2,-35 -2,35"
       id="path3998"
       inkscape:connector-curvature="0"
       sodipodi:nodetypes="cccc" />
    <path
       transform="translate(468.3585,402.51441)"
       style="opacity:0.38299997;fill:#000000;fill-opacity:1;stroke:none"
       d="m 185,243.09448 c 0,3.31371 -2.68629,6 -6,6 -3.31371,0 -6,-2.68629 -6,-6 0,-3.31371 2.68629,-6 6,-6 3.31371,0 6,2.68629 6,6 z"
       id="path4000" />
    <path
       style="opacity:0.20400002;fill:#000000;fill-opacity:1;stroke:none"
       d="m 644.42896,704.48352 c 13.85,0 25,11.15 25,25 l 0,190 c 0,13.85 -11.15,25 -25,25 -13.85,0 -25,-11.15 -25,-25 l 0,-190 c 0,-13.85 11.15,-25 25,-25 z"
       id="rect4002" />
    <path
       style="opacity:0.38299997;fill:none;stroke:#000000;stroke-width:9.5;stroke-linecap:round;stroke-linejoin:miter;stroke-miterlimit:4;stroke-opacity:1;stroke-dasharray:none"
       d="m 645,727.36218 0,195"
       id="path4004"
       inkscape:connector-curvature="0"
       sodipodi:nodetypes="cc" />
    <path
       style="fill:#2e2e2e;fill-opacity:1;stroke:none"
       d="m 645,773.36218 c 5.54,0 10,4.46 10,10 l 0,15 c 0,5.54 -4.46,10 -10,10 -5.54,0 -10,-4.46 -10,-10 l 0,-15 c 0,-5.54 4.46,-10 10,-10 z"
       id="rect4006" />
    <path
       style="opacity:0.20408164;fill:#000000;stroke:#000000;stroke-width:4;stroke-miterlimit:4;stroke-dashoffset:0"
       d="m 317.14285,432.36218 180,0 0,538.03577 -180,0 z"
       id="rect4010" />
    <g
       style="font-size:20px;font-style:normal;font-variant:normal;font-weight:300;font-stretch:normal;line-height:125%;letter-spacing:0px;word-spacing:0px;fill:#000000;fill-opacity:1;stroke:none;font-family:EB Garamond;-inkscape-font-specification:EB Garamond"
       id="text4012">
      <path
         d="m 365.868,448.89018 3.996,-0.216 c 2.71199,3e-5 4.93199,0.57603 6.66,1.728 1.72798,1.15202 2.59198,2.68802 2.592,4.608 -2e-5,2.35202 -0.70802,4.30802 -2.124,5.868 -1.41602,1.56001 -3.44401,2.34001 -6.084,2.34 -0.48001,10e-6 -0.87601,-0.072 -1.188,-0.216 -0.28801,-0.14399 -0.43201,-0.29999 -0.432,-0.468 -1e-5,-0.096 0.06,-0.17999 0.18,-0.252 0.14399,-0.096 0.27599,-0.14399 0.396,-0.144 l 0.54,0.072 c 0.35999,0.048 0.73199,0.084 1.116,0.108 2.90399,1e-5 4.35598,-2.14799 4.356,-6.444 -2e-5,-2.11198 -0.54002,-3.67198 -1.62,-4.68 -1.08001,-1.00798 -2.54401,-1.51197 -4.392,-1.512 -1.53601,3e-5 -2.30401,0.50402 -2.304,1.512 l 0,17.172 c -10e-6,1.8 0.80399,2.844 2.412,3.132 0.79199,0.144 1.18799,0.36 1.188,0.648 -1e-5,0.264 -0.34801,0.396 -1.044,0.396 -0.69601,0 -1.35601,-0.048 -1.98,-0.144 -0.62401,-0.072 -1.14001,-0.108 -1.548,-0.108 l -4.68,0.252 c -0.696,0 -1.044,-0.132 -1.044,-0.396 0,-0.288 0.432,-0.504 1.296,-0.648 0.864,-0.168 1.5,-0.444 1.908,-0.828 0.408,-0.408 0.612,-1.04399 0.612,-1.908 l 0,-15.192 c 0,-1.15198 -0.156,-2.00398 -0.468,-2.556 -0.288,-0.55198 -0.852,-0.89998 -1.692,-1.044 -0.816,-0.14397 -1.224,-0.38397 -1.224,-0.72 0,-0.26397 0.348,-0.39597 1.044,-0.396 l 3.528,0.036"
         style="font-size:36px"
         id="path4689" />
      <path
         d="m 384.21844,472.29018 -2.916,0.18 c -0.48,0 -0.72,-0.108 -0.72,-0.324 0,-0.24 0.336,-0.468 1.008,-0.684 0.672,-0.216 1.06799,-0.432 1.188,-0.648 0.11999,-0.24 0.17999,-0.468 0.18,-0.684 l 0,-18.144 c -10e-6,-1.51198 -0.55201,-2.38797 -1.656,-2.628 -0.192,-0.048 -0.288,-0.19197 -0.288,-0.432 0,-0.26397 0.084,-0.41997 0.252,-0.468 0.6,-0.14397 1.99199,-0.62397 4.176,-1.44 l 0.036,0 0.036,-0.036 c 0.14399,3e-5 0.21599,0.084 0.216,0.252 -10e-6,0.072 -0.024,0.28803 -0.072,0.648 -0.12001,0.93603 -0.18001,2.35202 -0.18,4.248 l 0,18 c -10e-6,0.48 0.14399,0.792 0.432,0.936 0.31199,0.144 0.70799,0.3 1.188,0.468 0.50399,0.168 0.75599,0.372 0.756,0.612 -1e-5,0.216 -0.24001,0.324 -0.72,0.324 l -2.916,-0.18"
         style="font-size:36px"
         id="path4691" />
      <path
         d="m 401.47087,472.90218 0.18,-2.376 0,-0.216 c -1.72801,1.704 -3.708,2.556 -5.94,2.556 -1.224,0 -2.22,-0.372 -2.988,-1.116 -0.744,-0.744 -1.116,-1.79999 -1.116,-3.168 l 0,-7.308 c 0,-0.95999 -0.516,-1.64398 -1.548,-2.052 -0.312,-0.096 -0.468,-0.28798 -0.468,-0.576 0,-0.31198 0.18,-0.50398 0.54,-0.576 0.84,-0.024 2.076,-0.22798 3.708,-0.612 0.168,-0.024 0.3,0.012 0.396,0.108 0.096,0.096 0.132,0.22802 0.108,0.396 -0.144,1.10402 -0.216,2.02801 -0.216,2.772 l 0,7.02 c 0,0.86401 0.312,1.63201 0.93601,2.304 0.62399,0.648 1.31999,0.972 2.08799,0.972 1.392,0 2.39999,-0.24 3.024,-0.72 1.07999,-0.79199 1.61999,-1.69199 1.62,-2.7 l 0,-6.588 c -10e-6,-0.64799 -0.25201,-1.10398 -0.75599,-1.368 -0.50402,-0.26398 -1.03202,-0.39598 -1.584,-0.396 -0.55202,-0.024 -0.82802,-0.23998 -0.82801,-0.648 -10e-6,-0.19198 0.096,-0.32398 0.288,-0.396 0.21599,-0.096 0.53999,-0.14398 0.972,-0.144 0.43199,-0.024 0.86399,-0.048 1.29601,-0.072 0.43198,-0.048 0.80398,-0.096 1.11599,-0.144 0.31199,-0.048 0.52799,-0.084 0.648,-0.108 0.14399,2e-5 0.52799,-0.10798 1.15201,-0.324 l 0.072,0 c 0.16798,2e-5 0.29998,0.072 0.39599,0.216 0.11999,0.14402 0.10799,0.33602 -0.036,0.576 -0.14401,0.24002 -0.21601,1.04402 -0.21599,2.412 l 0,7.632 c -2e-5,1.65601 0.21598,2.484 0.64799,2.484 0.74399,0 1.29599,-0.036 1.656,-0.108 0.35999,-0.072 0.53999,0.072 0.54001,0.432 -2e-5,0.36 -0.16802,0.54 -0.50401,0.54 -1.24801,0.168 -2.34001,0.444 -3.276,0.828 -0.91201,0.408 -1.46401,0.612 -1.656,0.612 -0.16801,0 -0.25201,-0.048 -0.252,-0.144"
         style="font-size:36px"
         id="path4693" />
      <path
         d="m 410.48325,477.18618 c 0,1.224 0.408,2.22 1.224,2.988 0.83999,0.79199 1.96799,1.18799 3.384,1.188 1.41599,-1e-5 2.65199,-0.48001 3.708,-1.44 1.05599,-0.96 1.58399,-2.172 1.584,-3.636 -10e-6,-0.6 -0.30001,-1.104 -0.9,-1.512 -0.57601,-0.408 -1.27201,-0.696 -2.088,-0.864 -0.81601,-0.144 -1.95601,-0.252 -3.42,-0.324 l -0.828,0 c -0.28801,0.192 -0.888,0.744 -1.8,1.656 -0.576,0.672 -0.864,1.32 -0.864,1.944 m 7.668,-14.292 c -1e-5,-1.17599 -0.32401,-2.20799 -0.972,-3.096 -0.64801,-0.88798 -1.45201,-1.33198 -2.412,-1.332 -0.96001,2e-5 -1.72801,0.45602 -2.304,1.368 -0.576,0.88801 -0.864,1.87201 -0.864,2.952 0,1.08001 0.312,2.10001 0.936,3.06 0.64799,0.96001 1.43999,1.44001 2.376,1.44 0.93599,10e-6 1.70399,-0.44399 2.304,-1.332 0.62399,-0.88799 0.93599,-1.90799 0.936,-3.06 m 2.808,-4.392 1.152,-0.036 c 0.28799,2e-5 0.53998,0.012 0.756,0.036 0.21598,0.024 0.32398,0.25202 0.324,0.684 -2e-5,0.40802 -0.10802,0.61202 -0.324,0.612 -0.88801,2e-5 -1.39201,0.024 -1.512,0.072 -0.12001,0.048 -0.21601,0.096 -0.288,0.144 -0.072,0.024 -0.15601,0.048 -0.252,0.072 -0.096,0.26401 -0.14401,0.81601 -0.144,1.656 -10e-6,1.80001 -0.57601,3.38401 -1.728,4.752 -1.15201,1.36801 -2.59201,2.05201 -4.32,2.052 -0.76801,1e-5 -1.41601,-0.14399 -1.944,-0.432 -1.056,0.81601 -1.584,1.40401 -1.584,1.764 0,0.768 1.152,1.26 3.456,1.476 3.11999,0.288 4.94399,0.552 5.472,0.792 0.55199,0.24 1.04399,0.492 1.476,0.756 0.71999,0.456 1.07998,1.2 1.08,2.232 -2e-5,1.92 -0.87601,3.672 -2.628,5.256 -1.72801,1.60799 -3.51601,2.41199 -5.364,2.412 -1.82401,-1e-5 -3.396,-0.32401 -4.716,-0.972 -1.296,-0.64801 -1.944,-1.69201 -1.944,-3.132 0,-0.744 0.18,-1.392 0.54,-1.944 0.384,-0.528 1.008,-1.068 1.872,-1.62 0.888,-0.552 1.512,-1.104 1.872,-1.656 -0.816,-0.168 -1.56,-0.48 -2.232,-0.936 -0.672,-0.432 -1.008,-1.02 -1.008,-1.764 0,-0.456 0.276,-0.89999 0.828,-1.332 0.144,-0.096 0.372,-0.23999 0.684,-0.432 0.648,-0.38399 1.128,-0.79199 1.44,-1.224 -0.336,-0.072 -0.792,-0.38399 -1.368,-0.936 -1.176,-1.10399 -1.764,-2.43599 -1.764,-3.996 0,-1.55999 0.648,-2.85599 1.944,-3.888 1.296,-1.05598 2.78399,-1.58398 4.464,-1.584 0.59999,2e-5 1.30799,0.13202 2.124,0.396 1.51199,0.48002 2.72399,0.72002 3.636,0.72"
         style="font-size:36px"
         id="path4695" />
      <path
         d="m 427.45894,453.89418 c -0.52801,-0.024 -0.96001,-0.20398 -1.296,-0.54 -0.33601,-0.33598 -0.504,-0.76798 -0.504,-1.296 0,-0.52798 0.16799,-0.95998 0.504,-1.296 0.33599,-0.33598 0.76799,-0.50398 1.296,-0.504 0.52799,2e-5 0.95999,0.16802 1.296,0.504 0.33599,0.33602 0.51599,0.78002 0.54,1.332 -0.024,0.50402 -0.20401,0.92402 -0.54,1.26 -0.33601,0.33602 -0.76801,0.51602 -1.296,0.54 m 0.252,18.396 -2.916,0.18 c -0.48,0 -0.72,-0.108 -0.72,-0.324 0,-0.24 0.336,-0.468 1.008,-0.684 0.67199,-0.216 1.06799,-0.432 1.188,-0.648 0.11999,-0.24 0.17999,-0.468 0.18,-0.684 l 0,-7.812 c -10e-6,-1.51199 -0.56401,-2.38798 -1.692,-2.628 -0.192,-0.048 -0.288,-0.19198 -0.288,-0.432 0,-0.26398 0.084,-0.41998 0.252,-0.468 1.17599,-0.28798 2.39999,-0.85198 3.672,-1.692 0.38399,-0.23998 0.59999,-0.35998 0.648,-0.36 0.16799,2e-5 0.25199,0.06 0.252,0.18 -0.21601,2.20802 -0.32401,3.82801 -0.324,4.86 l 0,8.352 c -10e-6,0.48 0.14399,0.792 0.432,0.936 0.31199,0.144 0.70799,0.3 1.188,0.468 0.50399,0.168 0.75599,0.372 0.756,0.612 -1e-5,0.216 -0.24001,0.324 -0.72,0.324 l -2.916,-0.18"
         style="font-size:36px"
         id="path4697" />
      <path
         d="m 446.58,472.29018 -2.952,0.18 c -0.48001,0 -0.72001,-0.108 -0.72,-0.324 -1e-5,-0.24 0.27599,-0.456 0.828,-0.648 0.024,0 0.072,-0.012 0.144,-0.036 0.79199,-0.24 1.24799,-0.564 1.368,-0.972 0.024,-0.12 0.036,-0.24 0.036,-0.36 l 0,-7.56 c -10e-6,-1.03199 -0.30001,-1.84799 -0.9,-2.448 -0.60001,-0.59998 -1.48801,-0.89998 -2.664,-0.9 -1.15201,2e-5 -2.10001,0.25202 -2.844,0.756 -0.74401,0.50401 -1.11601,1.41601 -1.116,2.736 l 0,7.416 c -10e-6,0.48 0.14399,0.792 0.432,0.936 0.31199,0.144 0.70799,0.3 1.188,0.468 0.50399,0.168 0.75599,0.372 0.756,0.612 -1e-5,0.216 -0.24001,0.324 -0.72,0.324 l -2.916,-0.18 -2.916,0.18 c -0.48,0 -0.72,-0.108 -0.72,-0.324 0,-0.24 0.192,-0.42 0.576,-0.54 0.408,-0.144 0.636,-0.216 0.684,-0.216 0.072,-0.024 0.204,-0.084 0.396,-0.18 0.192,-0.096 0.312,-0.18 0.36,-0.252 0.24,-0.264 0.36,-0.54 0.36,-0.828 l 0,-7.74 c 0,-1.53599 -0.492,-2.39999 -1.476,-2.592 -0.192,-0.048 -0.288,-0.20398 -0.288,-0.468 0,-0.26398 0.084,-0.40798 0.252,-0.432 1.248,-0.28798 2.568,-0.94798 3.96,-1.98 0.024,-0.024 0.06,-0.036 0.108,-0.036 0.072,2e-5 0.14399,0.10802 0.216,0.324 l -0.252,2.34 c -10e-6,0.16802 0.012,0.26402 0.036,0.288 0.67199,-0.55198 1.57199,-1.07998 2.7,-1.584 1.15199,-0.52798 2.26799,-0.79198 3.348,-0.792 1.07999,2e-5 2.00399,0.48002 2.772,1.44 0.79198,0.96002 1.18798,2.14801 1.188,3.564 l 0,7.668 c -2e-5,0.48 0.14398,0.792 0.432,0.936 0.31198,0.144 0.70798,0.3 1.188,0.468 0.50398,0.168 0.75598,0.372 0.756,0.612 -2e-5,0.216 -0.24002,0.324 -0.72,0.324 l -2.88,-0.18"
         style="font-size:36px"
         id="path4699" />
    </g>
    <path
       transform="translate(27.46442,80.478302)"
       style="opacity:0.20408164;fill:#000000;stroke:#000000;stroke-width:4;stroke-miterlimit:4;stroke-dashoffset:0"
       d="m 420,464.09448 c 0,22.09139 -17.90861,40 -40,40 -22.09139,0 -40,-17.90861 -40,-40 0,-22.09139 17.90861,-40 40,-40 22.09139,0 40,17.90861 40,40 z"
       id="path4016" />
    <path
       sodipodi:nodetypes="ccc"
       inkscape:connector-curvature="0"
       id="path4018"
       d="m 409.84375,540.26843 -2.53558,-31.7894 -2.46442,31.7894"
       style="opacity:0.38775509;fill:#000000;fill-opacity:1;stroke:#000000;stroke-width:1px;stroke-linecap:butt;stroke-linejoin:miter;stroke-opacity:1" />
    <path
       transform="translate(228.3585,303.94298)"
       style="opacity:0.38775509;fill:#000000;fill-opacity:1;stroke:none"
       d="m 185,243.09448 c 0,3.31371 -2.68629,6 -6,6 -3.31371,0 -6,-2.68629 -6,-6 0,-3.31371 2.68629,-6 6,-6 3.31371,0 6,2.68629 6,6 z"
       id="path4020" />
    <path
       transform="translate(27.46442,179.04973)"
       style="opacity:0.20408164;fill:#000000;stroke:#000000;stroke-width:4;stroke-miterlimit:4;stroke-dashoffset:0"
       d="m 420,464.09448 c 0,22.09139 -17.90861,40 -40,40 -22.09139,0 -40,-17.90861 -40,-40 0,-22.09139 17.90861,-40 40,-40 22.09139,0 40,17.90861 40,40 z"
       id="path4022" />
    <path
       sodipodi:nodetypes="cccc"
       inkscape:connector-curvature="0"
       id="path4024"
       d="m 405.28764,638.01769 4,0 -2,-35 -2,35"
       style="opacity:0.38299997;fill:#000000;fill-opacity:1;stroke:#000000;stroke-width:1px;stroke-linecap:butt;stroke-linejoin:miter;stroke-opacity:1" />
    <path
       transform="translate(228.3585,402.51441)"
       style="opacity:0.38299997;fill:#000000;fill-opacity:1;stroke:none"
       d="m 185,243.09448 c 0,3.31371 -2.68629,6 -6,6 -3.31371,0 -6,-2.68629 -6,-6 0,-3.31371 2.68629,-6 6,-6 3.31371,0 6,2.68629 6,6 z"
       id="path4026" />
    <path
       style="opacity:0.20400002;fill:#000000;fill-opacity:1;stroke:none"
       d="m 404.42892,704.48352 c 13.85,0 25,11.15 25,25 l 0,190 c 0,13.85 -11.15,25 -25,25 -13.85,0 -25,-11.15 -25,-25 l 0,-190 c 0,-13.85 11.15,-25 25,-25 z"
       id="rect4028" />
    <path
       sodipodi:nodetypes="cc"
       inkscape:connector-curvature="0"
       id="path4030"
       d="m 405,727.36218 0,195"
       style="opacity:0.38299997;fill:none;stroke:#000000;stroke-width:9.5;stroke-linecap:round;stroke-linejoin:miter;stroke-miterlimit:4;stroke-opacity:1;stroke-dasharray:none" />
    <path
       style="fill:#2e2e2e;fill-opacity:1;stroke:none"
       d="m 405,817.86218 c 5.54,0 10,4.46 10,10 l 0,15 c 0,5.54 -4.46,10 -10,10 -5.54,0 -10,-4.46 -10,-10 l 0,-15 c 0,-5.54 4.46,-10 10,-10 z"
       id="rect4032" />
  </g>
</svg>
